ISO-10303-21;
HEADER;
/* Generated by software containing ST-Developer
 * from STEP Tools, Inc. (www.steptools.com) 
 */
/* OPTION: using custom renumber hook */

FILE_DESCRIPTION(
/* description */ ('STEP AP203'),
/* implementation_level */ '2;1');

FILE_NAME(
/* name */ 'FTS-102-01-F-S',
/* time_stamp */ '2026-08-25T15:41:29+02:00',
/* author */ ('License CC BY-ND 4.0'),
/* organization */ ('CADENAS'),
/* preprocessor_version */ 'ST-DEVELOPER v20',
/* originating_system */ 'PARTsolutions',
/* authorisation */ '  ');

FILE_SCHEMA (('CONFIG_CONTROL_DESIGN'));
ENDSEC;

DATA;
#10=PROPERTY_DEFINITION_REPRESENTATION(#14,#12);
#11=PROPERTY_DEFINITION_REPRESENTATION(#15,#13);
#12=REPRESENTATION('',(#16),#966);
#13=REPRESENTATION('',(#17),#966);
#14=PROPERTY_DEFINITION('pmi validation property','',#980);
#15=PROPERTY_DEFINITION('pmi validation property','',#980);
#16=VALUE_REPRESENTATION_ITEM('number of annotations',COUNT_MEASURE(0.));
#17=VALUE_REPRESENTATION_ITEM('number of views',COUNT_MEASURE(0.));
#18=CONTEXT_DEPENDENT_SHAPE_REPRESENTATION(#24,#982);
#19=CONTEXT_DEPENDENT_SHAPE_REPRESENTATION(#25,#984);
#20=CONTEXT_DEPENDENT_SHAPE_REPRESENTATION(#26,#986);
#21=NEXT_ASSEMBLY_USAGE_OCCURRENCE('NAUO1','FTS-102-01-F-S_body',
'FTS-102-01-F-S_body',#987,#988,'');
#22=NEXT_ASSEMBLY_USAGE_OCCURRENCE('NAUO2','FTS-102-01-F-S_pins1',
'FTS-102-01-F-S_pins1',#987,#989,'');
#23=NEXT_ASSEMBLY_USAGE_OCCURRENCE('NAUO3','FTS-102-01-F-S_pins2',
'FTS-102-01-F-S_pins2',#987,#990,'');
#24=(
REPRESENTATION_RELATIONSHIP(' ',' ',#611,#610)
REPRESENTATION_RELATIONSHIP_WITH_TRANSFORMATION(#27)
SHAPE_REPRESENTATION_RELATIONSHIP()
);
#25=(
REPRESENTATION_RELATIONSHIP(' ',' ',#612,#610)
REPRESENTATION_RELATIONSHIP_WITH_TRANSFORMATION(#28)
SHAPE_REPRESENTATION_RELATIONSHIP()
);
#26=(
REPRESENTATION_RELATIONSHIP(' ',' ',#613,#610)
REPRESENTATION_RELATIONSHIP_WITH_TRANSFORMATION(#29)
SHAPE_REPRESENTATION_RELATIONSHIP()
);
#27=ITEM_DEFINED_TRANSFORMATION(' ',' ',#614,#621);
#28=ITEM_DEFINED_TRANSFORMATION(' ',' ',#614,#640);
#29=ITEM_DEFINED_TRANSFORMATION(' ',' ',#614,#651);
#30=SHAPE_REPRESENTATION_RELATIONSHIP('','',#611,#33);
#31=SHAPE_REPRESENTATION_RELATIONSHIP('','',#612,#34);
#32=SHAPE_REPRESENTATION_RELATIONSHIP('','',#613,#35);
#33=ADVANCED_BREP_SHAPE_REPRESENTATION('',(#603),#967);
#34=ADVANCED_BREP_SHAPE_REPRESENTATION('',(#604),#968);
#35=ADVANCED_BREP_SHAPE_REPRESENTATION('',(#605),#969);
#36=ORIENTED_EDGE('',*,*,#188,.T.);
#37=ORIENTED_EDGE('',*,*,#189,.F.);
#38=ORIENTED_EDGE('',*,*,#190,.F.);
#39=ORIENTED_EDGE('',*,*,#191,.T.);
#40=ORIENTED_EDGE('',*,*,#192,.T.);
#41=ORIENTED_EDGE('',*,*,#193,.F.);
#42=ORIENTED_EDGE('',*,*,#194,.F.);
#43=ORIENTED_EDGE('',*,*,#189,.T.);
#44=ORIENTED_EDGE('',*,*,#195,.T.);
#45=ORIENTED_EDGE('',*,*,#196,.F.);
#46=ORIENTED_EDGE('',*,*,#197,.F.);
#47=ORIENTED_EDGE('',*,*,#193,.T.);
#48=ORIENTED_EDGE('',*,*,#198,.T.);
#49=ORIENTED_EDGE('',*,*,#191,.F.);
#50=ORIENTED_EDGE('',*,*,#199,.F.);
#51=ORIENTED_EDGE('',*,*,#196,.T.);
#52=ORIENTED_EDGE('',*,*,#190,.T.);
#53=ORIENTED_EDGE('',*,*,#194,.T.);
#54=ORIENTED_EDGE('',*,*,#197,.T.);
#55=ORIENTED_EDGE('',*,*,#199,.T.);
#56=ORIENTED_EDGE('',*,*,#188,.F.);
#57=ORIENTED_EDGE('',*,*,#198,.F.);
#58=ORIENTED_EDGE('',*,*,#195,.F.);
#59=ORIENTED_EDGE('',*,*,#192,.F.);
#60=ORIENTED_EDGE('',*,*,#200,.F.);
#61=ORIENTED_EDGE('',*,*,#201,.T.);
#62=ORIENTED_EDGE('',*,*,#202,.F.);
#63=ORIENTED_EDGE('',*,*,#203,.F.);
#64=ORIENTED_EDGE('',*,*,#204,.F.);
#65=ORIENTED_EDGE('',*,*,#205,.T.);
#66=ORIENTED_EDGE('',*,*,#206,.F.);
#67=ORIENTED_EDGE('',*,*,#207,.F.);
#68=ORIENTED_EDGE('',*,*,#208,.F.);
#69=ORIENTED_EDGE('',*,*,#203,.T.);
#70=ORIENTED_EDGE('',*,*,#209,.F.);
#71=ORIENTED_EDGE('',*,*,#205,.F.);
#72=ORIENTED_EDGE('',*,*,#210,.F.);
#73=ORIENTED_EDGE('',*,*,#211,.T.);
#74=ORIENTED_EDGE('',*,*,#212,.F.);
#75=ORIENTED_EDGE('',*,*,#213,.F.);
#76=ORIENTED_EDGE('',*,*,#214,.F.);
#77=ORIENTED_EDGE('',*,*,#201,.F.);
#78=ORIENTED_EDGE('',*,*,#215,.T.);
#79=ORIENTED_EDGE('',*,*,#216,.T.);
#80=ORIENTED_EDGE('',*,*,#217,.F.);
#81=ORIENTED_EDGE('',*,*,#211,.F.);
#82=ORIENTED_EDGE('',*,*,#218,.F.);
#83=ORIENTED_EDGE('',*,*,#219,.F.);
#84=ORIENTED_EDGE('',*,*,#220,.F.);
#85=ORIENTED_EDGE('',*,*,#216,.F.);
#86=ORIENTED_EDGE('',*,*,#221,.T.);
#87=ORIENTED_EDGE('',*,*,#222,.T.);
#88=ORIENTED_EDGE('',*,*,#223,.F.);
#89=ORIENTED_EDGE('',*,*,#224,.F.);
#90=ORIENTED_EDGE('',*,*,#225,.F.);
#91=ORIENTED_EDGE('',*,*,#226,.T.);
#92=ORIENTED_EDGE('',*,*,#227,.F.);
#93=ORIENTED_EDGE('',*,*,#222,.F.);
#94=ORIENTED_EDGE('',*,*,#228,.T.);
#95=ORIENTED_EDGE('',*,*,#207,.T.);
#96=ORIENTED_EDGE('',*,*,#229,.F.);
#97=ORIENTED_EDGE('',*,*,#230,.T.);
#98=ORIENTED_EDGE('',*,*,#231,.F.);
#99=ORIENTED_EDGE('',*,*,#226,.F.);
#100=ORIENTED_EDGE('',*,*,#232,.F.);
#101=ORIENTED_EDGE('',*,*,#213,.T.);
#102=ORIENTED_EDGE('',*,*,#233,.T.);
#103=ORIENTED_EDGE('',*,*,#230,.F.);
#104=ORIENTED_EDGE('',*,*,#221,.F.);
#105=ORIENTED_EDGE('',*,*,#215,.F.);
#106=ORIENTED_EDGE('',*,*,#234,.T.);
#107=ORIENTED_EDGE('',*,*,#228,.F.);
#108=ORIENTED_EDGE('',*,*,#227,.T.);
#109=ORIENTED_EDGE('',*,*,#235,.F.);
#110=ORIENTED_EDGE('',*,*,#217,.T.);
#111=ORIENTED_EDGE('',*,*,#220,.T.);
#112=ORIENTED_EDGE('',*,*,#212,.T.);
#113=ORIENTED_EDGE('',*,*,#235,.T.);
#114=ORIENTED_EDGE('',*,*,#231,.T.);
#115=ORIENTED_EDGE('',*,*,#233,.F.);
#116=ORIENTED_EDGE('',*,*,#200,.T.);
#117=ORIENTED_EDGE('',*,*,#208,.T.);
#118=ORIENTED_EDGE('',*,*,#204,.T.);
#119=ORIENTED_EDGE('',*,*,#234,.F.);
#120=ORIENTED_EDGE('',*,*,#202,.T.);
#121=ORIENTED_EDGE('',*,*,#236,.T.);
#122=ORIENTED_EDGE('',*,*,#206,.T.);
#123=ORIENTED_EDGE('',*,*,#209,.T.);
#124=ORIENTED_EDGE('',*,*,#214,.T.);
#125=ORIENTED_EDGE('',*,*,#237,.T.);
#126=ORIENTED_EDGE('',*,*,#223,.T.);
#127=ORIENTED_EDGE('',*,*,#236,.F.);
#128=ORIENTED_EDGE('',*,*,#219,.T.);
#129=ORIENTED_EDGE('',*,*,#238,.T.);
#130=ORIENTED_EDGE('',*,*,#224,.T.);
#131=ORIENTED_EDGE('',*,*,#237,.F.);
#132=ORIENTED_EDGE('',*,*,#218,.T.);
#133=ORIENTED_EDGE('',*,*,#239,.T.);
#134=ORIENTED_EDGE('',*,*,#225,.T.);
#135=ORIENTED_EDGE('',*,*,#238,.F.);
#136=ORIENTED_EDGE('',*,*,#210,.T.);
#137=ORIENTED_EDGE('',*,*,#232,.T.);
#138=ORIENTED_EDGE('',*,*,#229,.T.);
#139=ORIENTED_EDGE('',*,*,#239,.F.);
#140=ORIENTED_EDGE('',*,*,#240,.T.);
#141=ORIENTED_EDGE('',*,*,#241,.T.);
#142=ORIENTED_EDGE('',*,*,#242,.F.);
#143=ORIENTED_EDGE('',*,*,#243,.F.);
#144=ORIENTED_EDGE('',*,*,#244,.F.);
#145=ORIENTED_EDGE('',*,*,#245,.F.);
#146=ORIENTED_EDGE('',*,*,#246,.T.);
#147=ORIENTED_EDGE('',*,*,#247,.T.);
#148=ORIENTED_EDGE('',*,*,#248,.F.);
#149=ORIENTED_EDGE('',*,*,#243,.T.);
#150=ORIENTED_EDGE('',*,*,#249,.F.);
#151=ORIENTED_EDGE('',*,*,#247,.F.);
#152=ORIENTED_EDGE('',*,*,#250,.T.);
#153=ORIENTED_EDGE('',*,*,#251,.T.);
#154=ORIENTED_EDGE('',*,*,#252,.F.);
#155=ORIENTED_EDGE('',*,*,#253,.F.);
#156=ORIENTED_EDGE('',*,*,#254,.F.);
#157=ORIENTED_EDGE('',*,*,#251,.F.);
#158=ORIENTED_EDGE('',*,*,#255,.T.);
#159=ORIENTED_EDGE('',*,*,#256,.T.);
#160=ORIENTED_EDGE('',*,*,#257,.F.);
#161=ORIENTED_EDGE('',*,*,#258,.F.);
#162=ORIENTED_EDGE('',*,*,#259,.F.);
#163=ORIENTED_EDGE('',*,*,#256,.F.);
#164=ORIENTED_EDGE('',*,*,#260,.T.);
#165=ORIENTED_EDGE('',*,*,#245,.T.);
#166=ORIENTED_EDGE('',*,*,#261,.F.);
#167=ORIENTED_EDGE('',*,*,#241,.F.);
#168=ORIENTED_EDGE('',*,*,#246,.F.);
#169=ORIENTED_EDGE('',*,*,#260,.F.);
#170=ORIENTED_EDGE('',*,*,#255,.F.);
#171=ORIENTED_EDGE('',*,*,#250,.F.);
#172=ORIENTED_EDGE('',*,*,#249,.T.);
#173=ORIENTED_EDGE('',*,*,#242,.T.);
#174=ORIENTED_EDGE('',*,*,#261,.T.);
#175=ORIENTED_EDGE('',*,*,#244,.T.);
#176=ORIENTED_EDGE('',*,*,#248,.T.);
#177=ORIENTED_EDGE('',*,*,#262,.T.);
#178=ORIENTED_EDGE('',*,*,#257,.T.);
#179=ORIENTED_EDGE('',*,*,#240,.F.);
#180=ORIENTED_EDGE('',*,*,#253,.T.);
#181=ORIENTED_EDGE('',*,*,#263,.T.);
#182=ORIENTED_EDGE('',*,*,#258,.T.);
#183=ORIENTED_EDGE('',*,*,#262,.F.);
#184=ORIENTED_EDGE('',*,*,#252,.T.);
#185=ORIENTED_EDGE('',*,*,#254,.T.);
#186=ORIENTED_EDGE('',*,*,#259,.T.);
#187=ORIENTED_EDGE('',*,*,#263,.F.);
#188=EDGE_CURVE('',#264,#265,#312,.T.);
#189=EDGE_CURVE('',#266,#265,#313,.T.);
#190=EDGE_CURVE('',#267,#266,#314,.T.);
#191=EDGE_CURVE('',#267,#264,#315,.T.);
#192=EDGE_CURVE('',#265,#268,#316,.T.);
#193=EDGE_CURVE('',#269,#268,#317,.T.);
#194=EDGE_CURVE('',#266,#269,#318,.T.);
#195=EDGE_CURVE('',#268,#270,#319,.T.);
#196=EDGE_CURVE('',#271,#270,#320,.T.);
#197=EDGE_CURVE('',#269,#271,#321,.T.);
#198=EDGE_CURVE('',#270,#264,#322,.T.);
#199=EDGE_CURVE('',#271,#267,#323,.T.);
#200=EDGE_CURVE('',#272,#273,#324,.T.);
#201=EDGE_CURVE('',#272,#274,#325,.T.);
#202=EDGE_CURVE('',#275,#274,#326,.T.);
#203=EDGE_CURVE('',#273,#275,#327,.T.);
#204=EDGE_CURVE('',#276,#277,#328,.T.);
#205=EDGE_CURVE('',#276,#278,#329,.T.);
#206=EDGE_CURVE('',#279,#278,#330,.T.);
#207=EDGE_CURVE('',#277,#279,#331,.T.);
#208=EDGE_CURVE('',#273,#276,#332,.T.);
#209=EDGE_CURVE('',#278,#275,#333,.T.);
#210=EDGE_CURVE('',#280,#281,#334,.T.);
#211=EDGE_CURVE('',#280,#282,#335,.T.);
#212=EDGE_CURVE('',#283,#282,#336,.T.);
#213=EDGE_CURVE('',#281,#283,#337,.T.);
#214=EDGE_CURVE('',#274,#284,#338,.T.);
#215=EDGE_CURVE('',#272,#285,#339,.T.);
#216=EDGE_CURVE('',#285,#286,#340,.T.);
#217=EDGE_CURVE('',#282,#286,#341,.T.);
#218=EDGE_CURVE('',#287,#280,#342,.T.);
#219=EDGE_CURVE('',#284,#287,#343,.T.);
#220=EDGE_CURVE('',#286,#288,#344,.T.);
#221=EDGE_CURVE('',#285,#289,#345,.T.);
#222=EDGE_CURVE('',#289,#288,#346,.T.);
#223=EDGE_CURVE('',#290,#279,#347,.T.);
#224=EDGE_CURVE('',#291,#290,#348,.T.);
#225=EDGE_CURVE('',#292,#291,#349,.T.);
#226=EDGE_CURVE('',#292,#293,#350,.T.);
#227=EDGE_CURVE('',#288,#293,#351,.T.);
#228=EDGE_CURVE('',#289,#277,#352,.T.);
#229=EDGE_CURVE('',#294,#292,#353,.T.);
#230=EDGE_CURVE('',#294,#295,#354,.T.);
#231=EDGE_CURVE('',#293,#295,#355,.T.);
#232=EDGE_CURVE('',#281,#294,#356,.T.);
#233=EDGE_CURVE('',#283,#295,#357,.T.);
#234=EDGE_CURVE('',#272,#277,#358,.T.);
#235=EDGE_CURVE('',#282,#293,#359,.T.);
#236=EDGE_CURVE('',#274,#279,#360,.T.);
#237=EDGE_CURVE('',#284,#290,#361,.T.);
#238=EDGE_CURVE('',#287,#291,#362,.T.);
#239=EDGE_CURVE('',#280,#292,#363,.T.);
#240=EDGE_CURVE('',#296,#297,#364,.T.);
#241=EDGE_CURVE('',#297,#298,#365,.T.);
#242=EDGE_CURVE('',#299,#298,#366,.T.);
#243=EDGE_CURVE('',#296,#299,#367,.T.);
#244=EDGE_CURVE('',#300,#301,#368,.T.);
#245=EDGE_CURVE('',#302,#300,#369,.T.);
#246=EDGE_CURVE('',#302,#303,#370,.T.);
#247=EDGE_CURVE('',#303,#301,#371,.T.);
#248=EDGE_CURVE('',#296,#304,#372,.T.);
#249=EDGE_CURVE('',#301,#299,#373,.T.);
#250=EDGE_CURVE('',#303,#305,#374,.T.);
#251=EDGE_CURVE('',#305,#306,#375,.T.);
#252=EDGE_CURVE('',#307,#306,#376,.T.);
#253=EDGE_CURVE('',#304,#307,#377,.T.);
#254=EDGE_CURVE('',#306,#308,#378,.T.);
#255=EDGE_CURVE('',#305,#309,#379,.T.);
#256=EDGE_CURVE('',#309,#308,#380,.T.);
#257=EDGE_CURVE('',#310,#297,#381,.T.);
#258=EDGE_CURVE('',#311,#310,#382,.T.);
#259=EDGE_CURVE('',#308,#311,#383,.T.);
#260=EDGE_CURVE('',#309,#302,#384,.T.);
#261=EDGE_CURVE('',#298,#300,#385,.T.);
#262=EDGE_CURVE('',#304,#310,#386,.T.);
#263=EDGE_CURVE('',#307,#311,#387,.T.);
#264=VERTEX_POINT('',#807);
#265=VERTEX_POINT('',#808);
#266=VERTEX_POINT('',#810);
#267=VERTEX_POINT('',#812);
#268=VERTEX_POINT('',#816);
#269=VERTEX_POINT('',#818);
#270=VERTEX_POINT('',#822);
#271=VERTEX_POINT('',#824);
#272=VERTEX_POINT('',#834);
#273=VERTEX_POINT('',#835);
#274=VERTEX_POINT('',#837);
#275=VERTEX_POINT('',#839);
#276=VERTEX_POINT('',#843);
#277=VERTEX_POINT('',#844);
#278=VERTEX_POINT('',#846);
#279=VERTEX_POINT('',#848);
#280=VERTEX_POINT('',#855);
#281=VERTEX_POINT('',#856);
#282=VERTEX_POINT('',#858);
#283=VERTEX_POINT('',#860);
#284=VERTEX_POINT('',#864);
#285=VERTEX_POINT('',#866);
#286=VERTEX_POINT('',#868);
#287=VERTEX_POINT('',#871);
#288=VERTEX_POINT('',#875);
#289=VERTEX_POINT('',#877);
#290=VERTEX_POINT('',#881);
#291=VERTEX_POINT('',#883);
#292=VERTEX_POINT('',#885);
#293=VERTEX_POINT('',#887);
#294=VERTEX_POINT('',#892);
#295=VERTEX_POINT('',#894);
#296=VERTEX_POINT('',#917);
#297=VERTEX_POINT('',#918);
#298=VERTEX_POINT('',#920);
#299=VERTEX_POINT('',#922);
#300=VERTEX_POINT('',#926);
#301=VERTEX_POINT('',#927);
#302=VERTEX_POINT('',#929);
#303=VERTEX_POINT('',#931);
#304=VERTEX_POINT('',#935);
#305=VERTEX_POINT('',#938);
#306=VERTEX_POINT('',#940);
#307=VERTEX_POINT('',#942);
#308=VERTEX_POINT('',#946);
#309=VERTEX_POINT('',#948);
#310=VERTEX_POINT('',#952);
#311=VERTEX_POINT('',#954);
#312=LINE('',#806,#388);
#313=LINE('',#809,#389);
#314=LINE('',#811,#390);
#315=LINE('',#813,#391);
#316=LINE('',#815,#392);
#317=LINE('',#817,#393);
#318=LINE('',#819,#394);
#319=LINE('',#821,#395);
#320=LINE('',#823,#396);
#321=LINE('',#825,#397);
#322=LINE('',#827,#398);
#323=LINE('',#828,#399);
#324=LINE('',#833,#400);
#325=LINE('',#836,#401);
#326=LINE('',#838,#402);
#327=LINE('',#840,#403);
#328=LINE('',#842,#404);
#329=LINE('',#845,#405);
#330=LINE('',#847,#406);
#331=LINE('',#849,#407);
#332=LINE('',#851,#408);
#333=LINE('',#852,#409);
#334=LINE('',#854,#410);
#335=LINE('',#857,#411);
#336=LINE('',#859,#412);
#337=LINE('',#861,#413);
#338=LINE('',#863,#414);
#339=LINE('',#865,#415);
#340=LINE('',#867,#416);
#341=LINE('',#869,#417);
#342=LINE('',#870,#418);
#343=LINE('',#872,#419);
#344=LINE('',#874,#420);
#345=LINE('',#876,#421);
#346=LINE('',#878,#422);
#347=LINE('',#880,#423);
#348=LINE('',#882,#424);
#349=LINE('',#884,#425);
#350=LINE('',#886,#426);
#351=LINE('',#888,#427);
#352=LINE('',#889,#428);
#353=LINE('',#891,#429);
#354=LINE('',#893,#430);
#355=LINE('',#895,#431);
#356=LINE('',#897,#432);
#357=LINE('',#898,#433);
#358=LINE('',#900,#434);
#359=LINE('',#902,#435);
#360=LINE('',#906,#436);
#361=LINE('',#908,#437);
#362=LINE('',#910,#438);
#363=LINE('',#912,#439);
#364=LINE('',#916,#440);
#365=LINE('',#919,#441);
#366=LINE('',#921,#442);
#367=LINE('',#923,#443);
#368=LINE('',#925,#444);
#369=LINE('',#928,#445);
#370=LINE('',#930,#446);
#371=LINE('',#932,#447);
#372=LINE('',#934,#448);
#373=LINE('',#936,#449);
#374=LINE('',#937,#450);
#375=LINE('',#939,#451);
#376=LINE('',#941,#452);
#377=LINE('',#943,#453);
#378=LINE('',#945,#454);
#379=LINE('',#947,#455);
#380=LINE('',#949,#456);
#381=LINE('',#951,#457);
#382=LINE('',#953,#458);
#383=LINE('',#955,#459);
#384=LINE('',#956,#460);
#385=LINE('',#957,#461);
#386=LINE('',#961,#462);
#387=LINE('',#963,#463);
#388=VECTOR('',#656,39.3700787401575);
#389=VECTOR('',#657,39.3700787401575);
#390=VECTOR('',#658,39.3700787401575);
#391=VECTOR('',#659,39.3700787401575);
#392=VECTOR('',#662,39.3700787401575);
#393=VECTOR('',#663,39.3700787401575);
#394=VECTOR('',#664,39.3700787401575);
#395=VECTOR('',#667,39.3700787401575);
#396=VECTOR('',#668,39.3700787401575);
#397=VECTOR('',#669,39.3700787401575);
#398=VECTOR('',#672,39.3700787401575);
#399=VECTOR('',#673,39.3700787401575);
#400=VECTOR('',#682,39.3700787401575);
#401=VECTOR('',#683,39.3700787401575);
#402=VECTOR('',#684,39.3700787401575);
#403=VECTOR('',#685,39.3700787401575);
#404=VECTOR('',#688,39.3700787401575);
#405=VECTOR('',#689,39.3700787401575);
#406=VECTOR('',#690,39.3700787401575);
#407=VECTOR('',#691,39.3700787401575);
#408=VECTOR('',#694,39.3700787401575);
#409=VECTOR('',#695,39.3700787401575);
#410=VECTOR('',#698,39.3700787401575);
#411=VECTOR('',#699,39.3700787401575);
#412=VECTOR('',#700,39.3700787401575);
#413=VECTOR('',#701,39.3700787401575);
#414=VECTOR('',#704,39.3700787401575);
#415=VECTOR('',#705,39.3700787401575);
#416=VECTOR('',#706,39.3700787401575);
#417=VECTOR('',#707,39.3700787401575);
#418=VECTOR('',#708,39.3700787401575);
#419=VECTOR('',#709,39.3700787401575);
#420=VECTOR('',#712,39.3700787401575);
#421=VECTOR('',#713,39.3700787401575);
#422=VECTOR('',#714,39.3700787401575);
#423=VECTOR('',#717,39.3700787401575);
#424=VECTOR('',#718,39.3700787401575);
#425=VECTOR('',#719,39.3700787401575);
#426=VECTOR('',#720,39.3700787401575);
#427=VECTOR('',#721,39.3700787401575);
#428=VECTOR('',#722,39.3700787401575);
#429=VECTOR('',#725,39.3700787401575);
#430=VECTOR('',#726,39.3700787401575);
#431=VECTOR('',#727,39.3700787401575);
#432=VECTOR('',#730,39.3700787401575);
#433=VECTOR('',#731,39.3700787401575);
#434=VECTOR('',#734,39.3700787401575);
#435=VECTOR('',#737,39.3700787401575);
#436=VECTOR('',#744,39.3700787401575);
#437=VECTOR('',#747,39.3700787401575);
#438=VECTOR('',#750,39.3700787401575);
#439=VECTOR('',#753,39.3700787401575);
#440=VECTOR('',#760,39.3700787401575);
#441=VECTOR('',#761,39.3700787401575);
#442=VECTOR('',#762,39.3700787401575);
#443=VECTOR('',#763,39.3700787401575);
#444=VECTOR('',#766,39.3700787401575);
#445=VECTOR('',#767,39.3700787401575);
#446=VECTOR('',#768,39.3700787401575);
#447=VECTOR('',#769,39.3700787401575);
#448=VECTOR('',#772,39.3700787401575);
#449=VECTOR('',#773,39.3700787401575);
#450=VECTOR('',#774,39.3700787401575);
#451=VECTOR('',#775,39.3700787401575);
#452=VECTOR('',#776,39.3700787401575);
#453=VECTOR('',#777,39.3700787401575);
#454=VECTOR('',#780,39.3700787401575);
#455=VECTOR('',#781,39.3700787401575);
#456=VECTOR('',#782,39.3700787401575);
#457=VECTOR('',#785,39.3700787401575);
#458=VECTOR('',#786,39.3700787401575);
#459=VECTOR('',#787,39.3700787401575);
#460=VECTOR('',#788,39.3700787401575);
#461=VECTOR('',#789,39.3700787401575);
#462=VECTOR('',#796,39.3700787401575);
#463=VECTOR('',#799,39.3700787401575);
#464=EDGE_LOOP('',(#36,#37,#38,#39));
#465=EDGE_LOOP('',(#40,#41,#42,#43));
#466=EDGE_LOOP('',(#44,#45,#46,#47));
#467=EDGE_LOOP('',(#48,#49,#50,#51));
#468=EDGE_LOOP('',(#52,#53,#54,#55));
#469=EDGE_LOOP('',(#56,#57,#58,#59));
#470=EDGE_LOOP('',(#60,#61,#62,#63));
#471=EDGE_LOOP('',(#64,#65,#66,#67));
#472=EDGE_LOOP('',(#68,#69,#70,#71));
#473=EDGE_LOOP('',(#72,#73,#74,#75));
#474=EDGE_LOOP('',(#76,#77,#78,#79,#80,#81,#82,#83));
#475=EDGE_LOOP('',(#84,#85,#86,#87));
#476=EDGE_LOOP('',(#88,#89,#90,#91,#92,#93,#94,#95));
#477=EDGE_LOOP('',(#96,#97,#98,#99));
#478=EDGE_LOOP('',(#100,#101,#102,#103));
#479=EDGE_LOOP('',(#104,#105,#106,#107));
#480=EDGE_LOOP('',(#108,#109,#110,#111));
#481=EDGE_LOOP('',(#112,#113,#114,#115));
#482=EDGE_LOOP('',(#116,#117,#118,#119));
#483=EDGE_LOOP('',(#120,#121,#122,#123));
#484=EDGE_LOOP('',(#124,#125,#126,#127));
#485=EDGE_LOOP('',(#128,#129,#130,#131));
#486=EDGE_LOOP('',(#132,#133,#134,#135));
#487=EDGE_LOOP('',(#136,#137,#138,#139));
#488=EDGE_LOOP('',(#140,#141,#142,#143));
#489=EDGE_LOOP('',(#144,#145,#146,#147));
#490=EDGE_LOOP('',(#148,#149,#150,#151,#152,#153,#154,#155));
#491=EDGE_LOOP('',(#156,#157,#158,#159));
#492=EDGE_LOOP('',(#160,#161,#162,#163,#164,#165,#166,#167));
#493=EDGE_LOOP('',(#168,#169,#170,#171));
#494=EDGE_LOOP('',(#172,#173,#174,#175));
#495=EDGE_LOOP('',(#176,#177,#178,#179));
#496=EDGE_LOOP('',(#180,#181,#182,#183));
#497=EDGE_LOOP('',(#184,#185,#186,#187));
#498=FACE_BOUND('',#464,.T.);
#499=FACE_BOUND('',#465,.T.);
#500=FACE_BOUND('',#466,.T.);
#501=FACE_BOUND('',#467,.T.);
#502=FACE_BOUND('',#468,.T.);
#503=FACE_BOUND('',#469,.T.);
#504=FACE_BOUND('',#470,.T.);
#505=FACE_BOUND('',#471,.T.);
#506=FACE_BOUND('',#472,.T.);
#507=FACE_BOUND('',#473,.T.);
#508=FACE_BOUND('',#474,.T.);
#509=FACE_BOUND('',#475,.T.);
#510=FACE_BOUND('',#476,.T.);
#511=FACE_BOUND('',#477,.T.);
#512=FACE_BOUND('',#478,.T.);
#513=FACE_BOUND('',#479,.T.);
#514=FACE_BOUND('',#480,.T.);
#515=FACE_BOUND('',#481,.T.);
#516=FACE_BOUND('',#482,.T.);
#517=FACE_BOUND('',#483,.T.);
#518=FACE_BOUND('',#484,.T.);
#519=FACE_BOUND('',#485,.T.);
#520=FACE_BOUND('',#486,.T.);
#521=FACE_BOUND('',#487,.T.);
#522=FACE_BOUND('',#488,.T.);
#523=FACE_BOUND('',#489,.T.);
#524=FACE_BOUND('',#490,.T.);
#525=FACE_BOUND('',#491,.T.);
#526=FACE_BOUND('',#492,.T.);
#527=FACE_BOUND('',#493,.T.);
#528=FACE_BOUND('',#494,.T.);
#529=FACE_BOUND('',#495,.T.);
#530=FACE_BOUND('',#496,.T.);
#531=FACE_BOUND('',#497,.T.);
#532=PLANE('',#615);
#533=PLANE('',#616);
#534=PLANE('',#617);
#535=PLANE('',#618);
#536=PLANE('',#619);
#537=PLANE('',#620);
#538=PLANE('',#622);
#539=PLANE('',#623);
#540=PLANE('',#624);
#541=PLANE('',#625);
#542=PLANE('',#626);
#543=PLANE('',#627);
#544=PLANE('',#628);
#545=PLANE('',#629);
#546=PLANE('',#630);
#547=PLANE('',#631);
#548=PLANE('',#632);
#549=PLANE('',#633);
#550=PLANE('',#634);
#551=PLANE('',#635);
#552=PLANE('',#636);
#553=PLANE('',#637);
#554=PLANE('',#638);
#555=PLANE('',#639);
#556=PLANE('',#641);
#557=PLANE('',#642);
#558=PLANE('',#643);
#559=PLANE('',#644);
#560=PLANE('',#645);
#561=PLANE('',#646);
#562=PLANE('',#647);
#563=PLANE('',#648);
#564=PLANE('',#649);
#565=PLANE('',#650);
#566=ADVANCED_FACE('',(#498),#532,.F.);
#567=ADVANCED_FACE('',(#499),#533,.F.);
#568=ADVANCED_FACE('',(#500),#534,.F.);
#569=ADVANCED_FACE('',(#501),#535,.F.);
#570=ADVANCED_FACE('',(#502),#536,.T.);
#571=ADVANCED_FACE('',(#503),#537,.F.);
#572=ADVANCED_FACE('',(#504),#538,.T.);
#573=ADVANCED_FACE('',(#505),#539,.T.);
#574=ADVANCED_FACE('',(#506),#540,.T.);
#575=ADVANCED_FACE('',(#507),#541,.T.);
#576=ADVANCED_FACE('',(#508),#542,.T.);
#577=ADVANCED_FACE('',(#509),#543,.T.);
#578=ADVANCED_FACE('',(#510),#544,.T.);
#579=ADVANCED_FACE('',(#511),#545,.T.);
#580=ADVANCED_FACE('',(#512),#546,.T.);
#581=ADVANCED_FACE('',(#513),#547,.F.);
#582=ADVANCED_FACE('',(#514),#548,.T.);
#583=ADVANCED_FACE('',(#515),#549,.F.);
#584=ADVANCED_FACE('',(#516),#550,.F.);
#585=ADVANCED_FACE('',(#517),#551,.F.);
#586=ADVANCED_FACE('',(#518),#552,.F.);
#587=ADVANCED_FACE('',(#519),#553,.F.);
#588=ADVANCED_FACE('',(#520),#554,.F.);
#589=ADVANCED_FACE('',(#521),#555,.F.);
#590=ADVANCED_FACE('',(#522),#556,.T.);
#591=ADVANCED_FACE('',(#523),#557,.T.);
#592=ADVANCED_FACE('',(#524),#558,.T.);
#593=ADVANCED_FACE('',(#525),#559,.T.);
#594=ADVANCED_FACE('',(#526),#560,.T.);
#595=ADVANCED_FACE('',(#527),#561,.F.);
#596=ADVANCED_FACE('',(#528),#562,.T.);
#597=ADVANCED_FACE('',(#529),#563,.F.);
#598=ADVANCED_FACE('',(#530),#564,.F.);
#599=ADVANCED_FACE('',(#531),#565,.F.);
#600=CLOSED_SHELL('',(#566,#567,#568,#569,#570,#571));
#601=CLOSED_SHELL('',(#572,#573,#574,#575,#576,#577,#578,#579,#580,#581,
#582,#583,#584,#585,#586,#587,#588,#589));
#602=CLOSED_SHELL('',(#590,#591,#592,#593,#594,#595,#596,#597,#598,#599));
#603=MANIFOLD_SOLID_BREP('FTS-102-01-F-S_body',#600);
#604=MANIFOLD_SOLID_BREP('FTS-102-01-F-S_pins1',#601);
#605=MANIFOLD_SOLID_BREP('FTS-102-01-F-S_pins2',#602);
#606=SHAPE_DEFINITION_REPRESENTATION(#980,#610);
#607=SHAPE_DEFINITION_REPRESENTATION(#981,#611);
#608=SHAPE_DEFINITION_REPRESENTATION(#983,#612);
#609=SHAPE_DEFINITION_REPRESENTATION(#985,#613);
#610=SHAPE_REPRESENTATION('FTS-102-01-F-S',(#614,#621,#640,#651),#966);
#611=SHAPE_REPRESENTATION('FTS-102-01-F-S_body',(#614),#967);
#612=SHAPE_REPRESENTATION('FTS-102-01-F-S_pins1',(#614),#968);
#613=SHAPE_REPRESENTATION('FTS-102-01-F-S_pins2',(#614),#969);
#614=AXIS2_PLACEMENT_3D('',#804,#652,#653);
#615=AXIS2_PLACEMENT_3D('',#805,#654,#655);
#616=AXIS2_PLACEMENT_3D('',#814,#660,#661);
#617=AXIS2_PLACEMENT_3D('',#820,#665,#666);
#618=AXIS2_PLACEMENT_3D('',#826,#670,#671);
#619=AXIS2_PLACEMENT_3D('',#829,#674,#675);
#620=AXIS2_PLACEMENT_3D('',#830,#676,#677);
#621=AXIS2_PLACEMENT_3D('',#831,#678,#679);
#622=AXIS2_PLACEMENT_3D('',#832,#680,#681);
#623=AXIS2_PLACEMENT_3D('',#841,#686,#687);
#624=AXIS2_PLACEMENT_3D('',#850,#692,#693);
#625=AXIS2_PLACEMENT_3D('',#853,#696,#697);
#626=AXIS2_PLACEMENT_3D('',#862,#702,#703);
#627=AXIS2_PLACEMENT_3D('',#873,#710,#711);
#628=AXIS2_PLACEMENT_3D('',#879,#715,#716);
#629=AXIS2_PLACEMENT_3D('',#890,#723,#724);
#630=AXIS2_PLACEMENT_3D('',#896,#728,#729);
#631=AXIS2_PLACEMENT_3D('',#899,#732,#733);
#632=AXIS2_PLACEMENT_3D('',#901,#735,#736);
#633=AXIS2_PLACEMENT_3D('',#903,#738,#739);
#634=AXIS2_PLACEMENT_3D('',#904,#740,#741);
#635=AXIS2_PLACEMENT_3D('',#905,#742,#743);
#636=AXIS2_PLACEMENT_3D('',#907,#745,#746);
#637=AXIS2_PLACEMENT_3D('',#909,#748,#749);
#638=AXIS2_PLACEMENT_3D('',#911,#751,#752);
#639=AXIS2_PLACEMENT_3D('',#913,#754,#755);
#640=AXIS2_PLACEMENT_3D('',#914,#756,#757);
#641=AXIS2_PLACEMENT_3D('',#915,#758,#759);
#642=AXIS2_PLACEMENT_3D('',#924,#764,#765);
#643=AXIS2_PLACEMENT_3D('',#933,#770,#771);
#644=AXIS2_PLACEMENT_3D('',#944,#778,#779);
#645=AXIS2_PLACEMENT_3D('',#950,#783,#784);
#646=AXIS2_PLACEMENT_3D('',#958,#790,#791);
#647=AXIS2_PLACEMENT_3D('',#959,#792,#793);
#648=AXIS2_PLACEMENT_3D('',#960,#794,#795);
#649=AXIS2_PLACEMENT_3D('',#962,#797,#798);
#650=AXIS2_PLACEMENT_3D('',#964,#800,#801);
#651=AXIS2_PLACEMENT_3D('',#965,#802,#803);
#652=DIRECTION('',(0.,0.,1.));
#653=DIRECTION('',(1.,0.,0.));
#654=DIRECTION('',(1.,0.,0.));
#655=DIRECTION('',(0.,0.,-1.));
#656=DIRECTION('',(0.,0.,1.));
#657=DIRECTION('',(0.,-1.,0.));
#658=DIRECTION('',(0.,0.,1.));
#659=DIRECTION('',(0.,-1.,0.));
#660=DIRECTION('',(0.,0.,-1.));
#661=DIRECTION('',(-1.,0.,0.));
#662=DIRECTION('',(1.,0.,0.));
#663=DIRECTION('',(0.,-1.,0.));
#664=DIRECTION('',(1.,0.,0.));
#665=DIRECTION('',(-1.,0.,0.));
#666=DIRECTION('',(0.,0.,1.));
#667=DIRECTION('',(0.,0.,-1.));
#668=DIRECTION('',(0.,-1.,0.));
#669=DIRECTION('',(0.,0.,-1.));
#670=DIRECTION('',(0.,0.,1.));
#671=DIRECTION('',(1.,0.,0.));
#672=DIRECTION('',(-1.,0.,0.));
#673=DIRECTION('',(-1.,0.,0.));
#674=DIRECTION('',(0.,1.,0.));
#675=DIRECTION('',(0.,0.,1.));
#676=DIRECTION('',(0.,1.,0.));
#677=DIRECTION('',(0.,0.,1.));
#678=DIRECTION('',(0.,0.,1.));
#679=DIRECTION('',(1.,0.,0.));
#680=DIRECTION('',(0.,0.499999999999998,0.86602540378444));
#681=DIRECTION('',(0.,-0.86602540378444,0.499999999999998));
#682=DIRECTION('',(0.447213595500192,0.774596669241383,-0.447213595499897));
#683=DIRECTION('',(1.,0.,0.));
#684=DIRECTION('',(0.447213595499105,-0.774596669241854,0.447213595500169));
#685=DIRECTION('',(1.,0.,0.));
#686=DIRECTION('',(0.,0.500000000000035,-0.866025403784419));
#687=DIRECTION('',(0.,0.866025403784419,0.500000000000035));
#688=DIRECTION('',(-0.447213595500183,-0.774596669241368,-0.447213595499933));
#689=DIRECTION('',(1.,0.,0.));
#690=DIRECTION('',(-0.447213595499096,0.774596669241839,0.447213595500204));
#691=DIRECTION('',(1.,0.,0.));
#692=DIRECTION('',(0.,1.,0.));
#693=DIRECTION('',(0.,0.,1.));
#694=DIRECTION('',(0.,0.,-1.));
#695=DIRECTION('',(0.,0.,1.));
#696=DIRECTION('',(0.,0.499999999999998,0.86602540378444));
#697=DIRECTION('',(0.,-0.86602540378444,0.499999999999998));
#698=DIRECTION('',(0.447213595499899,0.77459666924151,-0.44721359549997));
#699=DIRECTION('',(1.,0.,0.));
#700=DIRECTION('',(0.44721359550059,-0.774596669241211,0.447213595499798));
#701=DIRECTION('',(1.,0.,0.));
#702=DIRECTION('',(0.,-1.62920324049634E-17,1.));
#703=DIRECTION('',(0.,-1.,-1.62920324049634E-17));
#704=DIRECTION('',(-8.68920672984826E-14,-1.,-1.62920324049634E-17));
#705=DIRECTION('',(0.,-1.,-1.62920324049634E-17));
#706=DIRECTION('',(1.,0.,0.));
#707=DIRECTION('',(0.,-1.,-1.62920324049634E-17));
#708=DIRECTION('',(0.,1.,1.62920324049634E-17));
#709=DIRECTION('',(1.,0.,0.));
#710=DIRECTION('',(0.,-1.,8.00346091893852E-16));
#711=DIRECTION('',(0.,-8.00346091893852E-16,-1.));
#712=DIRECTION('',(0.,-8.00346091893852E-16,-1.));
#713=DIRECTION('',(0.,-8.00346091893852E-16,-1.));
#714=DIRECTION('',(1.,0.,0.));
#715=DIRECTION('',(0.,0.,-1.));
#716=DIRECTION('',(-1.,0.,0.));
#717=DIRECTION('',(8.68920672984826E-14,1.,0.));
#718=DIRECTION('',(-1.,0.,0.));
#719=DIRECTION('',(0.,-1.,0.));
#720=DIRECTION('',(1.,0.,0.));
#721=DIRECTION('',(0.,1.,0.));
#722=DIRECTION('',(0.,1.,0.));
#723=DIRECTION('',(0.,0.500000000000035,-0.866025403784419));
#724=DIRECTION('',(0.,0.866025403784419,0.500000000000035));
#725=DIRECTION('',(-0.447213595499891,-0.774596669241495,-0.447213595500006));
#726=DIRECTION('',(1.,0.,0.));
#727=DIRECTION('',(-0.447213595500581,0.774596669241196,0.447213595499833));
#728=DIRECTION('',(0.,1.,0.));
#729=DIRECTION('',(0.,0.,1.));
#730=DIRECTION('',(0.,0.,-1.));
#731=DIRECTION('',(0.,0.,-1.));
#732=DIRECTION('',(1.,0.,0.));
#733=DIRECTION('',(0.,0.,-1.));
#734=DIRECTION('',(0.,0.,-1.));
#735=DIRECTION('',(1.,0.,0.));
#736=DIRECTION('',(0.,0.,-1.));
#737=DIRECTION('',(0.,0.,-1.));
#738=DIRECTION('',(-0.866025403784056,-0.500000000000662,0.));
#739=DIRECTION('',(0.500000000000662,-0.866025403784057,0.));
#740=DIRECTION('',(0.866025403784297,-0.500000000000245,0.));
#741=DIRECTION('',(0.500000000000245,0.866025403784297,0.));
#742=DIRECTION('',(-0.866025403784955,-0.499999999999105,0.));
#743=DIRECTION('',(0.499999999999105,-0.866025403784956,0.));
#744=DIRECTION('',(0.,0.,-1.));
#745=DIRECTION('',(-1.,8.68920672984826E-14,0.));
#746=DIRECTION('',(-8.68920672984826E-14,-1.,0.));
#747=DIRECTION('',(0.,0.,-1.));
#748=DIRECTION('',(0.,-1.,0.));
#749=DIRECTION('',(0.,0.,-1.));
#750=DIRECTION('',(0.,0.,-1.));
#751=DIRECTION('',(1.,0.,0.));
#752=DIRECTION('',(0.,0.,-1.));
#753=DIRECTION('',(0.,0.,-1.));
#754=DIRECTION('',(0.866025403784474,-0.499999999999938,0.));
#755=DIRECTION('',(0.499999999999938,0.866025403784474,0.));
#756=DIRECTION('',(0.,0.,1.));
#757=DIRECTION('',(1.,0.,0.));
#758=DIRECTION('',(0.,-1.,0.));
#759=DIRECTION('',(0.,0.,-1.));
#760=DIRECTION('',(0.,0.,-1.));
#761=DIRECTION('',(1.,0.,0.));
#762=DIRECTION('',(0.,0.,-1.));
#763=DIRECTION('',(1.,0.,0.));
#764=DIRECTION('',(0.,1.,0.));
#765=DIRECTION('',(0.,0.,1.));
#766=DIRECTION('',(0.,0.,1.));
#767=DIRECTION('',(1.,0.,0.));
#768=DIRECTION('',(0.,0.,1.));
#769=DIRECTION('',(1.,0.,0.));
#770=DIRECTION('',(0.,0.,1.));
#771=DIRECTION('',(1.,0.,0.));
#772=DIRECTION('',(-9.99045348308051E-14,1.,0.));
#773=DIRECTION('',(0.,-1.,0.));
#774=DIRECTION('',(0.,-1.,0.));
#775=DIRECTION('',(1.,0.,0.));
#776=DIRECTION('',(0.,-1.,0.));
#777=DIRECTION('',(-1.,-1.25544485002879E-16,0.));
#778=DIRECTION('',(0.,-1.,0.));
#779=DIRECTION('',(0.,0.,-1.));
#780=DIRECTION('',(0.,0.,-1.));
#781=DIRECTION('',(0.,0.,-1.));
#782=DIRECTION('',(1.,0.,0.));
#783=DIRECTION('',(0.,0.,-1.));
#784=DIRECTION('',(-1.,0.,0.));
#785=DIRECTION('',(9.99045348308051E-14,-1.,0.));
#786=DIRECTION('',(1.,1.25544485002879E-16,0.));
#787=DIRECTION('',(0.,1.,0.));
#788=DIRECTION('',(0.,1.,0.));
#789=DIRECTION('',(0.,1.,0.));
#790=DIRECTION('',(1.,0.,0.));
#791=DIRECTION('',(0.,0.,-1.));
#792=DIRECTION('',(1.,0.,0.));
#793=DIRECTION('',(0.,0.,-1.));
#794=DIRECTION('',(1.,9.99045348308051E-14,0.));
#795=DIRECTION('',(-9.99045348308051E-14,1.,0.));
#796=DIRECTION('',(0.,0.,-1.));
#797=DIRECTION('',(-1.25544485002879E-16,1.,0.));
#798=DIRECTION('',(-1.,-1.25544485002879E-16,0.));
#799=DIRECTION('',(0.,0.,-1.));
#800=DIRECTION('',(-1.,0.,0.));
#801=DIRECTION('',(0.,0.,1.));
#802=DIRECTION('',(0.,0.,1.));
#803=DIRECTION('',(1.,0.,0.));
#804=CARTESIAN_POINT('',(0.,0.,0.));
#805=CARTESIAN_POINT('',(-0.05,0.034,-0.0425));
#806=CARTESIAN_POINT('',(-0.05,0.,-0.0425));
#807=CARTESIAN_POINT('',(-0.05,0.,-0.0425));
#808=CARTESIAN_POINT('',(-0.05,0.,0.0425));
#809=CARTESIAN_POINT('',(-0.05,0.034,0.0425));
#810=CARTESIAN_POINT('',(-0.05,0.034,0.0425));
#811=CARTESIAN_POINT('',(-0.05,0.034,-0.0425));
#812=CARTESIAN_POINT('',(-0.05,0.034,-0.0425));
#813=CARTESIAN_POINT('',(-0.05,0.034,-0.0425));
#814=CARTESIAN_POINT('',(-0.05,0.034,0.0425));
#815=CARTESIAN_POINT('',(-0.05,0.,0.0425));
#816=CARTESIAN_POINT('',(0.05,0.,0.0425));
#817=CARTESIAN_POINT('',(0.05,0.034,0.0425));
#818=CARTESIAN_POINT('',(0.05,0.034,0.0425));
#819=CARTESIAN_POINT('',(-0.05,0.034,0.0425));
#820=CARTESIAN_POINT('',(0.05,0.034,0.0425));
#821=CARTESIAN_POINT('',(0.05,0.,0.0425));
#822=CARTESIAN_POINT('',(0.05,0.,-0.0425));
#823=CARTESIAN_POINT('',(0.05,0.034,-0.0425));
#824=CARTESIAN_POINT('',(0.05,0.034,-0.0425));
#825=CARTESIAN_POINT('',(0.05,0.034,0.0425));
#826=CARTESIAN_POINT('',(0.05,0.034,-0.0425));
#827=CARTESIAN_POINT('',(0.05,0.,-0.0425));
#828=CARTESIAN_POINT('',(0.05,0.034,-0.0425));
#829=CARTESIAN_POINT('',(0.,0.034,0.));
#830=CARTESIAN_POINT('',(0.,0.,0.));
#831=CARTESIAN_POINT('',(0.,0.,0.));
#832=CARTESIAN_POINT('',(-0.033,0.154,0.0028038475772929));
#833=CARTESIAN_POINT('',(-0.0288430780618548,0.152200000000007,0.00384307806182988));
#834=CARTESIAN_POINT('',(-0.03300000000003,0.144999999999995,0.00799999999999968));
#835=CARTESIAN_POINT('',(-0.02780384757732,0.153999999999995,0.0028038475772929));
#836=CARTESIAN_POINT('',(-0.033,0.145,0.0079999999999997));
#837=CARTESIAN_POINT('',(-0.01700000000003,0.144999999999995,0.00799999999999968));
#838=CARTESIAN_POINT('',(-0.0243569219381734,0.157742562584208,0.00064307806184142));
#839=CARTESIAN_POINT('',(-0.02219615242273,0.154000000000005,0.0028038475772929));
#840=CARTESIAN_POINT('',(-0.033,0.154,0.0028038475772929));
#841=CARTESIAN_POINT('',(-0.033,0.145,-0.0079999999999998));
#842=CARTESIAN_POINT('',(-0.0330000000000215,0.14500000000001,-0.00799999999999442));
#843=CARTESIAN_POINT('',(-0.02780384757732,0.153999999999995,-0.0028038475772929));
#844=CARTESIAN_POINT('',(-0.033,0.145,-0.0079999999999998));
#845=CARTESIAN_POINT('',(-0.033,0.154,-0.0028038475772929));
#846=CARTESIAN_POINT('',(-0.02219615242273,0.154000000000005,-0.0028038475772929));
#847=CARTESIAN_POINT('',(-0.0202000000000141,0.150542562584201,-0.00480000000001082));
#848=CARTESIAN_POINT('',(-0.0170000000000299,0.144999999999995,-0.00800000000000302));
#849=CARTESIAN_POINT('',(-0.033,0.145,-0.0079999999999998));
#850=CARTESIAN_POINT('',(-0.033,0.154,-0.0028038475772929));
#851=CARTESIAN_POINT('',(-0.02780384757732,0.153999999999995,0.5));
#852=CARTESIAN_POINT('',(-0.0221961524227271,0.154,-0.0028038475772929));
#853=CARTESIAN_POINT('',(-0.033,0.154,0.0028038475772929));
#854=CARTESIAN_POINT('',(0.0111569219381446,0.134879491924323,0.0138430780618272));
#855=CARTESIAN_POINT('',(0.01699999999998,0.145000000000015,0.00799999999999968));
#856=CARTESIAN_POINT('',(0.0221961524226771,0.154,0.0028038475772929));
#857=CARTESIAN_POINT('',(-0.033,0.145,0.0079999999999997));
#858=CARTESIAN_POINT('',(0.033,0.145,0.0079999999999997));
#859=CARTESIAN_POINT('',(0.0156430780617839,0.175063070659924,-0.00935692193817451));
#860=CARTESIAN_POINT('',(0.02780384757727,0.154000000000005,0.0028038475772929));
#861=CARTESIAN_POINT('',(-0.033,0.154,0.0028038475772929));
#862=CARTESIAN_POINT('',(-0.033,0.145,0.0079999999999997));
#863=CARTESIAN_POINT('',(-0.01700000000003,0.144999999999998,0.0079999999999997));
#864=CARTESIAN_POINT('',(-0.01700000000004,0.03,0.00799999999999968));
#865=CARTESIAN_POINT('',(-0.033,0.145,0.0079999999999997));
#866=CARTESIAN_POINT('',(-0.033,0.014,0.0079999999999997));
#867=CARTESIAN_POINT('',(-0.033,0.014,0.0079999999999997));
#868=CARTESIAN_POINT('',(0.033,0.014,0.0079999999999997));
#869=CARTESIAN_POINT('',(0.033,0.145,0.0079999999999997));
#870=CARTESIAN_POINT('',(0.01699999999998,0.145,0.0079999999999997));
#871=CARTESIAN_POINT('',(0.01699999999998,0.03,0.00799999999999968));
#872=CARTESIAN_POINT('',(-0.033,0.03,0.0079999999999997));
#873=CARTESIAN_POINT('',(-0.033,0.014,0.0079999999999997));
#874=CARTESIAN_POINT('',(0.033,0.014,0.0079999999999997));
#875=CARTESIAN_POINT('',(0.033,0.014,-0.0079999999999998));
#876=CARTESIAN_POINT('',(-0.033,0.014,0.0079999999999997));
#877=CARTESIAN_POINT('',(-0.033,0.014,-0.0079999999999998));
#878=CARTESIAN_POINT('',(-0.033,0.014,-0.0079999999999998));
#879=CARTESIAN_POINT('',(-0.033,0.014,-0.0079999999999998));
#880=CARTESIAN_POINT('',(-0.0170000000000413,0.0139999999999986,-0.0079999999999998));
#881=CARTESIAN_POINT('',(-0.01700000000004,0.03,-0.00799999999999982));
#882=CARTESIAN_POINT('',(-0.033,0.03,-0.0079999999999998));
#883=CARTESIAN_POINT('',(0.01699999999998,0.03,-0.00799999999999982));
#884=CARTESIAN_POINT('',(0.01699999999998,0.014,-0.0079999999999998));
#885=CARTESIAN_POINT('',(0.01699999999998,0.145000000000015,-0.00799999999999133));
#886=CARTESIAN_POINT('',(-0.033,0.145,-0.0079999999999998));
#887=CARTESIAN_POINT('',(0.03299999999998,0.145000000000015,-0.00799999999999982));
#888=CARTESIAN_POINT('',(0.033,0.014,-0.0079999999999998));
#889=CARTESIAN_POINT('',(-0.033,0.014,-0.0079999999999998));
#890=CARTESIAN_POINT('',(-0.033,0.145,-0.0079999999999998));
#891=CARTESIAN_POINT('',(0.00699999999998023,0.127679491924324,-0.0179999999999937));
#892=CARTESIAN_POINT('',(0.02219615242268,0.154000000000005,-0.0028038475772929));
#893=CARTESIAN_POINT('',(-0.033,0.154,-0.0028038475772929));
#894=CARTESIAN_POINT('',(0.02780384757727,0.154000000000005,-0.0028038475772929));
#895=CARTESIAN_POINT('',(0.019799999999954,0.167863070659929,0.00520000000001261));
#896=CARTESIAN_POINT('',(-0.033,0.154,-0.0028038475772929));
#897=CARTESIAN_POINT('',(0.0221961524226771,0.154,-0.0028038475772929));
#898=CARTESIAN_POINT('',(0.02780384757727,0.154000000000005,0.5));
#899=CARTESIAN_POINT('',(-0.033,0.,0.));
#900=CARTESIAN_POINT('',(-0.033,0.145000000000047,0.));
#901=CARTESIAN_POINT('',(0.033,0.,0.));
#902=CARTESIAN_POINT('',(0.033,0.14499999999998,0.));
#903=CARTESIAN_POINT('',(0.03299999999998,0.145000000000015,0.5));
#904=CARTESIAN_POINT('',(-0.02780384757732,0.153999999999995,0.5));
#905=CARTESIAN_POINT('',(-0.01700000000003,0.144999999999995,0.5));
#906=CARTESIAN_POINT('',(-0.01700000000003,0.144999999999995,0.5));
#907=CARTESIAN_POINT('',(-0.01700000000004,0.03,0.5));
#908=CARTESIAN_POINT('',(-0.01700000000004,0.03,0.5));
#909=CARTESIAN_POINT('',(0.01699999999998,0.03,0.5));
#910=CARTESIAN_POINT('',(0.01699999999998,0.03,0.5));
#911=CARTESIAN_POINT('',(0.01699999999998,0.145000000000015,0.5));
#912=CARTESIAN_POINT('',(0.01699999999998,0.145000000000015,0.5));
#913=CARTESIAN_POINT('',(0.02219615242268,0.154000000000005,0.5));
#914=CARTESIAN_POINT('',(0.,0.,0.));
#915=CARTESIAN_POINT('',(-0.033,-0.09,0.008));
#916=CARTESIAN_POINT('',(0.01699999999999,-0.089999999999995,0.5));
#917=CARTESIAN_POINT('',(0.01699999999999,-0.089999999999995,0.00800000000000002));
#918=CARTESIAN_POINT('',(0.01699999999999,-0.089999999999995,-0.00800000000000002));
#919=CARTESIAN_POINT('',(-0.033,-0.09,-0.008));
#920=CARTESIAN_POINT('',(0.033,-0.09,-0.008));
#921=CARTESIAN_POINT('',(0.033,-0.09,0.008));
#922=CARTESIAN_POINT('',(0.033,-0.09,0.008));
#923=CARTESIAN_POINT('',(-0.033,-0.09,0.008));
#924=CARTESIAN_POINT('',(-0.033,0.02,-0.008));
#925=CARTESIAN_POINT('',(0.033,0.02,-0.008));
#926=CARTESIAN_POINT('',(0.033,0.02,-0.008));
#927=CARTESIAN_POINT('',(0.033,0.02,0.008));
#928=CARTESIAN_POINT('',(-0.033,0.02,-0.008));
#929=CARTESIAN_POINT('',(-0.033,0.02,-0.008));
#930=CARTESIAN_POINT('',(-0.033,0.02,-0.008));
#931=CARTESIAN_POINT('',(-0.033,0.02,0.008));
#932=CARTESIAN_POINT('',(-0.033,0.02,0.008));
#933=CARTESIAN_POINT('',(-0.033,0.02,0.008));
#934=CARTESIAN_POINT('',(0.016999999999979,0.020000000000005,0.008));
#935=CARTESIAN_POINT('',(0.01699999999998,0.01,0.00800000000000002));
#936=CARTESIAN_POINT('',(0.033,0.02,0.008));
#937=CARTESIAN_POINT('',(-0.033,0.02,0.008));
#938=CARTESIAN_POINT('',(-0.033,-0.09,0.008));
#939=CARTESIAN_POINT('',(-0.033,-0.09,0.008));
#940=CARTESIAN_POINT('',(-0.01700000000004,-0.089999999999999,0.00800000000000002));
#941=CARTESIAN_POINT('',(-0.01700000000004,0.02,0.008));
#942=CARTESIAN_POINT('',(-0.01700000000004,0.01,0.00800000000000002));
#943=CARTESIAN_POINT('',(-0.033,0.00999999999999999,0.008));
#944=CARTESIAN_POINT('',(-0.033,-0.09,0.008));
#945=CARTESIAN_POINT('',(-0.01700000000004,-0.089999999999999,0.5));
#946=CARTESIAN_POINT('',(-0.01700000000004,-0.09,-0.008));
#947=CARTESIAN_POINT('',(-0.033,-0.09,0.008));
#948=CARTESIAN_POINT('',(-0.033,-0.09,-0.008));
#949=CARTESIAN_POINT('',(-0.033,-0.09,-0.008));
#950=CARTESIAN_POINT('',(-0.033,-0.09,-0.008));
#951=CARTESIAN_POINT('',(0.01699999999999,-0.089999999999995,-0.008));
#952=CARTESIAN_POINT('',(0.01699999999998,0.01,-0.00800000000000002));
#953=CARTESIAN_POINT('',(-0.033,0.01,-0.008));
#954=CARTESIAN_POINT('',(-0.01700000000004,0.01,-0.00800000000000002));
#955=CARTESIAN_POINT('',(-0.01700000000004,-0.09,-0.008));
#956=CARTESIAN_POINT('',(-0.033,-0.09,-0.008));
#957=CARTESIAN_POINT('',(0.033,-0.09,-0.008));
#958=CARTESIAN_POINT('',(-0.033,0.,0.));
#959=CARTESIAN_POINT('',(0.033,0.,0.));
#960=CARTESIAN_POINT('',(0.01699999999998,0.01,0.5));
#961=CARTESIAN_POINT('',(0.01699999999998,0.01,0.5));
#962=CARTESIAN_POINT('',(-0.01700000000004,0.01,0.5));
#963=CARTESIAN_POINT('',(-0.01700000000004,0.01,0.5));
#964=CARTESIAN_POINT('',(-0.01700000000004,-0.089999999999999,0.5));
#965=CARTESIAN_POINT('',(0.,0.,0.));
#966=(
GEOMETRIC_REPRESENTATION_CONTEXT(3)
GLOBAL_UNCERTAINTY_ASSIGNED_CONTEXT((#970))
GLOBAL_UNIT_ASSIGNED_CONTEXT((#976,#975,#974))
REPRESENTATION_CONTEXT('FTS-102-01-F-S','TOP_LEVEL_ASSEMBLY_PART')
);
#967=(
GEOMETRIC_REPRESENTATION_CONTEXT(3)
GLOBAL_UNCERTAINTY_ASSIGNED_CONTEXT((#971))
GLOBAL_UNIT_ASSIGNED_CONTEXT((#976,#975,#974))
REPRESENTATION_CONTEXT('FTS-102-01-F-S_body','COMPONENT_PART')
);
#968=(
GEOMETRIC_REPRESENTATION_CONTEXT(3)
GLOBAL_UNCERTAINTY_ASSIGNED_CONTEXT((#972))
GLOBAL_UNIT_ASSIGNED_CONTEXT((#976,#975,#974))
REPRESENTATION_CONTEXT('FTS-102-01-F-S_pins1','COMPONENT_PART')
);
#969=(
GEOMETRIC_REPRESENTATION_CONTEXT(3)
GLOBAL_UNCERTAINTY_ASSIGNED_CONTEXT((#973))
GLOBAL_UNIT_ASSIGNED_CONTEXT((#976,#975,#974))
REPRESENTATION_CONTEXT('FTS-102-01-F-S_pins2','COMPONENT_PART')
);
#970=UNCERTAINTY_MEASURE_WITH_UNIT(LENGTH_MEASURE(3.93700787401575E-7),
#976,'DISTANCE_ACCURACY_VALUE','Maximum Tolerance applied to model');
#971=UNCERTAINTY_MEASURE_WITH_UNIT(LENGTH_MEASURE(3.93700787401575E-7),
#976,'DISTANCE_ACCURACY_VALUE','Maximum Tolerance applied to model');
#972=UNCERTAINTY_MEASURE_WITH_UNIT(LENGTH_MEASURE(3.93700787401575E-7),
#976,'DISTANCE_ACCURACY_VALUE','Maximum Tolerance applied to model');
#973=UNCERTAINTY_MEASURE_WITH_UNIT(LENGTH_MEASURE(3.93700787401575E-7),
#976,'DISTANCE_ACCURACY_VALUE','Maximum Tolerance applied to model');
#974=(
NAMED_UNIT(*)
SI_UNIT($,.STERADIAN.)
SOLID_ANGLE_UNIT()
);
#975=(
NAMED_UNIT(*)
PLANE_ANGLE_UNIT()
SI_UNIT($,.RADIAN.)
);
#976=(
CONVERSION_BASED_UNIT('INCH',#978)
LENGTH_UNIT()
NAMED_UNIT(#977)
);
#977=DIMENSIONAL_EXPONENTS(1.,0.,0.,0.,0.,0.,0.);
#978=LENGTH_MEASURE_WITH_UNIT(LENGTH_MEASURE(25.4),#979);
#979=(
LENGTH_UNIT()
NAMED_UNIT(*)
SI_UNIT(.MILLI.,.METRE.)
);
#980=PRODUCT_DEFINITION_SHAPE('','',#987);
#981=PRODUCT_DEFINITION_SHAPE('','',#988);
#982=PRODUCT_DEFINITION_SHAPE(' ','NAUO PRDDFN',#21);
#983=PRODUCT_DEFINITION_SHAPE('','',#989);
#984=PRODUCT_DEFINITION_SHAPE(' ','NAUO PRDDFN',#22);
#985=PRODUCT_DEFINITION_SHAPE('','',#990);
#986=PRODUCT_DEFINITION_SHAPE(' ','NAUO PRDDFN',#23);
#987=PRODUCT_DEFINITION('','',#995,#991);
#988=PRODUCT_DEFINITION('','',#996,#992);
#989=PRODUCT_DEFINITION('','',#997,#993);
#990=PRODUCT_DEFINITION('','',#998,#994);
#991=DESIGN_CONTEXT('',#1016,'design');
#992=DESIGN_CONTEXT('',#1016,'design');
#993=DESIGN_CONTEXT('',#1016,'design');
#994=DESIGN_CONTEXT('',#1016,'design');
#995=PRODUCT_DEFINITION_FORMATION_WITH_SPECIFIED_SOURCE('','',#1003,
 .NOT_KNOWN.);
#996=PRODUCT_DEFINITION_FORMATION_WITH_SPECIFIED_SOURCE('','',#1004,
 .NOT_KNOWN.);
#997=PRODUCT_DEFINITION_FORMATION_WITH_SPECIFIED_SOURCE('','',#1005,
 .NOT_KNOWN.);
#998=PRODUCT_DEFINITION_FORMATION_WITH_SPECIFIED_SOURCE('','',#1006,
 .NOT_KNOWN.);
#999=PRODUCT_RELATED_PRODUCT_CATEGORY('','',(#1003));
#1000=PRODUCT_RELATED_PRODUCT_CATEGORY('','',(#1004));
#1001=PRODUCT_RELATED_PRODUCT_CATEGORY('','',(#1005));
#1002=PRODUCT_RELATED_PRODUCT_CATEGORY('','',(#1006));
#1003=PRODUCT('FTS-102-01-F-S','FTS-102-01-F-S','FTS-102-01-F-S',(#1011));
#1004=PRODUCT('FTS-102-01-F-S_body','FTS-102-01-F-S_body',
'FTS-102-01-F-S_body',(#1012));
#1005=PRODUCT('FTS-102-01-F-S_pins1','FTS-102-01-F-S_pins1',
'FTS-102-01-F-S_pins1',(#1013));
#1006=PRODUCT('FTS-102-01-F-S_pins2','FTS-102-01-F-S_pins2',
'FTS-102-01-F-S_pins2',(#1014));
#1007=PRODUCT_CATEGORY('','');
#1008=PRODUCT_CATEGORY('','');
#1009=PRODUCT_CATEGORY('','');
#1010=PRODUCT_CATEGORY('','');
#1011=MECHANICAL_CONTEXT('',#1016,'mechanical');
#1012=MECHANICAL_CONTEXT('',#1016,'mechanical');
#1013=MECHANICAL_CONTEXT('',#1016,'mechanical');
#1014=MECHANICAL_CONTEXT('',#1016,'mechanical');
#1015=APPLICATION_PROTOCOL_DEFINITION('international standard',
'config_control_design',2010,#1016);
#1016=APPLICATION_CONTEXT(
'configuration controlled 3D designs of mechanical parts and assemblie
s');
ENDSEC;
END-ISO-10303-21;
