ISO-10303-21;
HEADER;
/* Generated by software containing ST-Developer
 * from STEP Tools, Inc. (www.steptools.com) 
 */
/* OPTION: using custom renumber hook */

FILE_DESCRIPTION(
/* description */ ('STEP AP203'),
/* implementation_level */ '2;1');

FILE_NAME(
/* name */ 'FTS-103-01-F-S',
/* time_stamp */ '2026-08-15T17:11:25+02:00',
/* author */ ('License CC BY-ND 4.0'),
/* organization */ ('CADENAS'),
/* preprocessor_version */ 'ST-DEVELOPER v20',
/* originating_system */ 'PARTsolutions',
/* authorisation */ '  ');

FILE_SCHEMA (('CONFIG_CONTROL_DESIGN'));
ENDSEC;

DATA;
#10=PROPERTY_DEFINITION_REPRESENTATION(#14,#12);
#11=PROPERTY_DEFINITION_REPRESENTATION(#15,#13);
#12=REPRESENTATION('',(#16),#1326);
#13=REPRESENTATION('',(#17),#1326);
#14=PROPERTY_DEFINITION('pmi validation property','',#1340);
#15=PROPERTY_DEFINITION('pmi validation property','',#1340);
#16=VALUE_REPRESENTATION_ITEM('number of annotations',COUNT_MEASURE(0.));
#17=VALUE_REPRESENTATION_ITEM('number of views',COUNT_MEASURE(0.));
#18=CONTEXT_DEPENDENT_SHAPE_REPRESENTATION(#24,#1342);
#19=CONTEXT_DEPENDENT_SHAPE_REPRESENTATION(#25,#1344);
#20=CONTEXT_DEPENDENT_SHAPE_REPRESENTATION(#26,#1346);
#21=NEXT_ASSEMBLY_USAGE_OCCURRENCE('NAUO1','FTS-103-01-F-S_body',
'FTS-103-01-F-S_body',#1347,#1348,'');
#22=NEXT_ASSEMBLY_USAGE_OCCURRENCE('NAUO2','FTS-103-01-F-S_pins1',
'FTS-103-01-F-S_pins1',#1347,#1349,'');
#23=NEXT_ASSEMBLY_USAGE_OCCURRENCE('NAUO3','FTS-103-01-F-S_pins2',
'FTS-103-01-F-S_pins2',#1347,#1350,'');
#24=(
REPRESENTATION_RELATIONSHIP(' ',' ',#839,#838)
REPRESENTATION_RELATIONSHIP_WITH_TRANSFORMATION(#27)
SHAPE_REPRESENTATION_RELATIONSHIP()
);
#25=(
REPRESENTATION_RELATIONSHIP(' ',' ',#840,#838)
REPRESENTATION_RELATIONSHIP_WITH_TRANSFORMATION(#28)
SHAPE_REPRESENTATION_RELATIONSHIP()
);
#26=(
REPRESENTATION_RELATIONSHIP(' ',' ',#841,#838)
REPRESENTATION_RELATIONSHIP_WITH_TRANSFORMATION(#29)
SHAPE_REPRESENTATION_RELATIONSHIP()
);
#27=ITEM_DEFINED_TRANSFORMATION(' ',' ',#842,#849);
#28=ITEM_DEFINED_TRANSFORMATION(' ',' ',#842,#876);
#29=ITEM_DEFINED_TRANSFORMATION(' ',' ',#842,#891);
#30=SHAPE_REPRESENTATION_RELATIONSHIP('','',#839,#33);
#31=SHAPE_REPRESENTATION_RELATIONSHIP('','',#840,#34);
#32=SHAPE_REPRESENTATION_RELATIONSHIP('','',#841,#35);
#33=ADVANCED_BREP_SHAPE_REPRESENTATION('',(#831),#1327);
#34=ADVANCED_BREP_SHAPE_REPRESENTATION('',(#832),#1328);
#35=ADVANCED_BREP_SHAPE_REPRESENTATION('',(#833),#1329);
#36=ORIENTED_EDGE('',*,*,#252,.T.);
#37=ORIENTED_EDGE('',*,*,#253,.F.);
#38=ORIENTED_EDGE('',*,*,#254,.F.);
#39=ORIENTED_EDGE('',*,*,#255,.T.);
#40=ORIENTED_EDGE('',*,*,#256,.T.);
#41=ORIENTED_EDGE('',*,*,#257,.F.);
#42=ORIENTED_EDGE('',*,*,#258,.F.);
#43=ORIENTED_EDGE('',*,*,#253,.T.);
#44=ORIENTED_EDGE('',*,*,#259,.T.);
#45=ORIENTED_EDGE('',*,*,#260,.F.);
#46=ORIENTED_EDGE('',*,*,#261,.F.);
#47=ORIENTED_EDGE('',*,*,#257,.T.);
#48=ORIENTED_EDGE('',*,*,#262,.T.);
#49=ORIENTED_EDGE('',*,*,#255,.F.);
#50=ORIENTED_EDGE('',*,*,#263,.F.);
#51=ORIENTED_EDGE('',*,*,#260,.T.);
#52=ORIENTED_EDGE('',*,*,#254,.T.);
#53=ORIENTED_EDGE('',*,*,#258,.T.);
#54=ORIENTED_EDGE('',*,*,#261,.T.);
#55=ORIENTED_EDGE('',*,*,#263,.T.);
#56=ORIENTED_EDGE('',*,*,#252,.F.);
#57=ORIENTED_EDGE('',*,*,#262,.F.);
#58=ORIENTED_EDGE('',*,*,#259,.F.);
#59=ORIENTED_EDGE('',*,*,#256,.F.);
#60=ORIENTED_EDGE('',*,*,#264,.F.);
#61=ORIENTED_EDGE('',*,*,#265,.T.);
#62=ORIENTED_EDGE('',*,*,#266,.F.);
#63=ORIENTED_EDGE('',*,*,#267,.F.);
#64=ORIENTED_EDGE('',*,*,#268,.F.);
#65=ORIENTED_EDGE('',*,*,#269,.T.);
#66=ORIENTED_EDGE('',*,*,#270,.F.);
#67=ORIENTED_EDGE('',*,*,#271,.F.);
#68=ORIENTED_EDGE('',*,*,#272,.F.);
#69=ORIENTED_EDGE('',*,*,#273,.T.);
#70=ORIENTED_EDGE('',*,*,#274,.F.);
#71=ORIENTED_EDGE('',*,*,#275,.F.);
#72=ORIENTED_EDGE('',*,*,#276,.F.);
#73=ORIENTED_EDGE('',*,*,#277,.T.);
#74=ORIENTED_EDGE('',*,*,#278,.F.);
#75=ORIENTED_EDGE('',*,*,#279,.F.);
#76=ORIENTED_EDGE('',*,*,#280,.F.);
#77=ORIENTED_EDGE('',*,*,#267,.T.);
#78=ORIENTED_EDGE('',*,*,#281,.F.);
#79=ORIENTED_EDGE('',*,*,#273,.F.);
#80=ORIENTED_EDGE('',*,*,#282,.F.);
#81=ORIENTED_EDGE('',*,*,#271,.T.);
#82=ORIENTED_EDGE('',*,*,#283,.F.);
#83=ORIENTED_EDGE('',*,*,#277,.F.);
#84=ORIENTED_EDGE('',*,*,#284,.F.);
#85=ORIENTED_EDGE('',*,*,#285,.T.);
#86=ORIENTED_EDGE('',*,*,#286,.F.);
#87=ORIENTED_EDGE('',*,*,#287,.F.);
#88=ORIENTED_EDGE('',*,*,#288,.F.);
#89=ORIENTED_EDGE('',*,*,#265,.F.);
#90=ORIENTED_EDGE('',*,*,#289,.T.);
#91=ORIENTED_EDGE('',*,*,#290,.T.);
#92=ORIENTED_EDGE('',*,*,#291,.F.);
#93=ORIENTED_EDGE('',*,*,#285,.F.);
#94=ORIENTED_EDGE('',*,*,#292,.F.);
#95=ORIENTED_EDGE('',*,*,#293,.F.);
#96=ORIENTED_EDGE('',*,*,#294,.F.);
#97=ORIENTED_EDGE('',*,*,#269,.F.);
#98=ORIENTED_EDGE('',*,*,#295,.F.);
#99=ORIENTED_EDGE('',*,*,#296,.F.);
#100=ORIENTED_EDGE('',*,*,#297,.F.);
#101=ORIENTED_EDGE('',*,*,#290,.F.);
#102=ORIENTED_EDGE('',*,*,#298,.T.);
#103=ORIENTED_EDGE('',*,*,#299,.T.);
#104=ORIENTED_EDGE('',*,*,#300,.F.);
#105=ORIENTED_EDGE('',*,*,#301,.F.);
#106=ORIENTED_EDGE('',*,*,#302,.F.);
#107=ORIENTED_EDGE('',*,*,#279,.T.);
#108=ORIENTED_EDGE('',*,*,#303,.F.);
#109=ORIENTED_EDGE('',*,*,#304,.F.);
#110=ORIENTED_EDGE('',*,*,#305,.F.);
#111=ORIENTED_EDGE('',*,*,#306,.T.);
#112=ORIENTED_EDGE('',*,*,#307,.F.);
#113=ORIENTED_EDGE('',*,*,#299,.F.);
#114=ORIENTED_EDGE('',*,*,#308,.T.);
#115=ORIENTED_EDGE('',*,*,#275,.T.);
#116=ORIENTED_EDGE('',*,*,#309,.F.);
#117=ORIENTED_EDGE('',*,*,#310,.T.);
#118=ORIENTED_EDGE('',*,*,#311,.F.);
#119=ORIENTED_EDGE('',*,*,#306,.F.);
#120=ORIENTED_EDGE('',*,*,#312,.F.);
#121=ORIENTED_EDGE('',*,*,#287,.T.);
#122=ORIENTED_EDGE('',*,*,#313,.T.);
#123=ORIENTED_EDGE('',*,*,#310,.F.);
#124=ORIENTED_EDGE('',*,*,#298,.F.);
#125=ORIENTED_EDGE('',*,*,#289,.F.);
#126=ORIENTED_EDGE('',*,*,#314,.T.);
#127=ORIENTED_EDGE('',*,*,#308,.F.);
#128=ORIENTED_EDGE('',*,*,#307,.T.);
#129=ORIENTED_EDGE('',*,*,#315,.F.);
#130=ORIENTED_EDGE('',*,*,#291,.T.);
#131=ORIENTED_EDGE('',*,*,#297,.T.);
#132=ORIENTED_EDGE('',*,*,#286,.T.);
#133=ORIENTED_EDGE('',*,*,#315,.T.);
#134=ORIENTED_EDGE('',*,*,#311,.T.);
#135=ORIENTED_EDGE('',*,*,#313,.F.);
#136=ORIENTED_EDGE('',*,*,#264,.T.);
#137=ORIENTED_EDGE('',*,*,#280,.T.);
#138=ORIENTED_EDGE('',*,*,#272,.T.);
#139=ORIENTED_EDGE('',*,*,#314,.F.);
#140=ORIENTED_EDGE('',*,*,#284,.T.);
#141=ORIENTED_EDGE('',*,*,#312,.T.);
#142=ORIENTED_EDGE('',*,*,#309,.T.);
#143=ORIENTED_EDGE('',*,*,#316,.F.);
#144=ORIENTED_EDGE('',*,*,#292,.T.);
#145=ORIENTED_EDGE('',*,*,#316,.T.);
#146=ORIENTED_EDGE('',*,*,#305,.T.);
#147=ORIENTED_EDGE('',*,*,#317,.F.);
#148=ORIENTED_EDGE('',*,*,#293,.T.);
#149=ORIENTED_EDGE('',*,*,#317,.T.);
#150=ORIENTED_EDGE('',*,*,#304,.T.);
#151=ORIENTED_EDGE('',*,*,#318,.F.);
#152=ORIENTED_EDGE('',*,*,#270,.T.);
#153=ORIENTED_EDGE('',*,*,#319,.T.);
#154=ORIENTED_EDGE('',*,*,#278,.T.);
#155=ORIENTED_EDGE('',*,*,#283,.T.);
#156=ORIENTED_EDGE('',*,*,#294,.T.);
#157=ORIENTED_EDGE('',*,*,#318,.T.);
#158=ORIENTED_EDGE('',*,*,#303,.T.);
#159=ORIENTED_EDGE('',*,*,#319,.F.);
#160=ORIENTED_EDGE('',*,*,#266,.T.);
#161=ORIENTED_EDGE('',*,*,#320,.T.);
#162=ORIENTED_EDGE('',*,*,#274,.T.);
#163=ORIENTED_EDGE('',*,*,#281,.T.);
#164=ORIENTED_EDGE('',*,*,#288,.T.);
#165=ORIENTED_EDGE('',*,*,#321,.T.);
#166=ORIENTED_EDGE('',*,*,#300,.T.);
#167=ORIENTED_EDGE('',*,*,#320,.F.);
#168=ORIENTED_EDGE('',*,*,#296,.T.);
#169=ORIENTED_EDGE('',*,*,#322,.T.);
#170=ORIENTED_EDGE('',*,*,#301,.T.);
#171=ORIENTED_EDGE('',*,*,#321,.F.);
#172=ORIENTED_EDGE('',*,*,#295,.T.);
#173=ORIENTED_EDGE('',*,*,#323,.T.);
#174=ORIENTED_EDGE('',*,*,#302,.T.);
#175=ORIENTED_EDGE('',*,*,#322,.F.);
#176=ORIENTED_EDGE('',*,*,#268,.T.);
#177=ORIENTED_EDGE('',*,*,#282,.T.);
#178=ORIENTED_EDGE('',*,*,#276,.T.);
#179=ORIENTED_EDGE('',*,*,#323,.F.);
#180=ORIENTED_EDGE('',*,*,#324,.T.);
#181=ORIENTED_EDGE('',*,*,#325,.T.);
#182=ORIENTED_EDGE('',*,*,#326,.F.);
#183=ORIENTED_EDGE('',*,*,#327,.F.);
#184=ORIENTED_EDGE('',*,*,#328,.F.);
#185=ORIENTED_EDGE('',*,*,#329,.F.);
#186=ORIENTED_EDGE('',*,*,#330,.T.);
#187=ORIENTED_EDGE('',*,*,#331,.T.);
#188=ORIENTED_EDGE('',*,*,#332,.F.);
#189=ORIENTED_EDGE('',*,*,#333,.F.);
#190=ORIENTED_EDGE('',*,*,#334,.T.);
#191=ORIENTED_EDGE('',*,*,#335,.T.);
#192=ORIENTED_EDGE('',*,*,#336,.F.);
#193=ORIENTED_EDGE('',*,*,#327,.T.);
#194=ORIENTED_EDGE('',*,*,#337,.F.);
#195=ORIENTED_EDGE('',*,*,#335,.F.);
#196=ORIENTED_EDGE('',*,*,#338,.T.);
#197=ORIENTED_EDGE('',*,*,#339,.T.);
#198=ORIENTED_EDGE('',*,*,#340,.F.);
#199=ORIENTED_EDGE('',*,*,#341,.F.);
#200=ORIENTED_EDGE('',*,*,#342,.F.);
#201=ORIENTED_EDGE('',*,*,#329,.T.);
#202=ORIENTED_EDGE('',*,*,#343,.F.);
#203=ORIENTED_EDGE('',*,*,#344,.F.);
#204=ORIENTED_EDGE('',*,*,#345,.F.);
#205=ORIENTED_EDGE('',*,*,#339,.F.);
#206=ORIENTED_EDGE('',*,*,#346,.T.);
#207=ORIENTED_EDGE('',*,*,#347,.T.);
#208=ORIENTED_EDGE('',*,*,#348,.F.);
#209=ORIENTED_EDGE('',*,*,#349,.F.);
#210=ORIENTED_EDGE('',*,*,#350,.F.);
#211=ORIENTED_EDGE('',*,*,#331,.F.);
#212=ORIENTED_EDGE('',*,*,#351,.F.);
#213=ORIENTED_EDGE('',*,*,#352,.F.);
#214=ORIENTED_EDGE('',*,*,#353,.F.);
#215=ORIENTED_EDGE('',*,*,#347,.F.);
#216=ORIENTED_EDGE('',*,*,#354,.T.);
#217=ORIENTED_EDGE('',*,*,#333,.T.);
#218=ORIENTED_EDGE('',*,*,#355,.F.);
#219=ORIENTED_EDGE('',*,*,#325,.F.);
#220=ORIENTED_EDGE('',*,*,#334,.F.);
#221=ORIENTED_EDGE('',*,*,#354,.F.);
#222=ORIENTED_EDGE('',*,*,#346,.F.);
#223=ORIENTED_EDGE('',*,*,#338,.F.);
#224=ORIENTED_EDGE('',*,*,#337,.T.);
#225=ORIENTED_EDGE('',*,*,#326,.T.);
#226=ORIENTED_EDGE('',*,*,#355,.T.);
#227=ORIENTED_EDGE('',*,*,#332,.T.);
#228=ORIENTED_EDGE('',*,*,#340,.T.);
#229=ORIENTED_EDGE('',*,*,#345,.T.);
#230=ORIENTED_EDGE('',*,*,#353,.T.);
#231=ORIENTED_EDGE('',*,*,#356,.F.);
#232=ORIENTED_EDGE('',*,*,#341,.T.);
#233=ORIENTED_EDGE('',*,*,#356,.T.);
#234=ORIENTED_EDGE('',*,*,#352,.T.);
#235=ORIENTED_EDGE('',*,*,#357,.F.);
#236=ORIENTED_EDGE('',*,*,#342,.T.);
#237=ORIENTED_EDGE('',*,*,#357,.T.);
#238=ORIENTED_EDGE('',*,*,#351,.T.);
#239=ORIENTED_EDGE('',*,*,#330,.F.);
#240=ORIENTED_EDGE('',*,*,#336,.T.);
#241=ORIENTED_EDGE('',*,*,#358,.T.);
#242=ORIENTED_EDGE('',*,*,#348,.T.);
#243=ORIENTED_EDGE('',*,*,#324,.F.);
#244=ORIENTED_EDGE('',*,*,#344,.T.);
#245=ORIENTED_EDGE('',*,*,#359,.T.);
#246=ORIENTED_EDGE('',*,*,#349,.T.);
#247=ORIENTED_EDGE('',*,*,#358,.F.);
#248=ORIENTED_EDGE('',*,*,#343,.T.);
#249=ORIENTED_EDGE('',*,*,#328,.T.);
#250=ORIENTED_EDGE('',*,*,#350,.T.);
#251=ORIENTED_EDGE('',*,*,#359,.F.);
#252=EDGE_CURVE('',#360,#361,#428,.T.);
#253=EDGE_CURVE('',#362,#361,#429,.T.);
#254=EDGE_CURVE('',#363,#362,#430,.T.);
#255=EDGE_CURVE('',#363,#360,#431,.T.);
#256=EDGE_CURVE('',#361,#364,#432,.T.);
#257=EDGE_CURVE('',#365,#364,#433,.T.);
#258=EDGE_CURVE('',#362,#365,#434,.T.);
#259=EDGE_CURVE('',#364,#366,#435,.T.);
#260=EDGE_CURVE('',#367,#366,#436,.T.);
#261=EDGE_CURVE('',#365,#367,#437,.T.);
#262=EDGE_CURVE('',#366,#360,#438,.T.);
#263=EDGE_CURVE('',#367,#363,#439,.T.);
#264=EDGE_CURVE('',#368,#369,#440,.T.);
#265=EDGE_CURVE('',#368,#370,#441,.T.);
#266=EDGE_CURVE('',#371,#370,#442,.T.);
#267=EDGE_CURVE('',#369,#371,#443,.T.);
#268=EDGE_CURVE('',#372,#373,#444,.T.);
#269=EDGE_CURVE('',#372,#374,#445,.T.);
#270=EDGE_CURVE('',#375,#374,#446,.T.);
#271=EDGE_CURVE('',#373,#375,#447,.T.);
#272=EDGE_CURVE('',#376,#377,#448,.T.);
#273=EDGE_CURVE('',#376,#378,#449,.T.);
#274=EDGE_CURVE('',#379,#378,#450,.T.);
#275=EDGE_CURVE('',#377,#379,#451,.T.);
#276=EDGE_CURVE('',#380,#381,#452,.T.);
#277=EDGE_CURVE('',#380,#382,#453,.T.);
#278=EDGE_CURVE('',#383,#382,#454,.T.);
#279=EDGE_CURVE('',#381,#383,#455,.T.);
#280=EDGE_CURVE('',#369,#376,#456,.T.);
#281=EDGE_CURVE('',#378,#371,#457,.T.);
#282=EDGE_CURVE('',#373,#380,#458,.T.);
#283=EDGE_CURVE('',#382,#375,#459,.T.);
#284=EDGE_CURVE('',#384,#385,#460,.T.);
#285=EDGE_CURVE('',#384,#386,#461,.T.);
#286=EDGE_CURVE('',#387,#386,#462,.T.);
#287=EDGE_CURVE('',#385,#387,#463,.T.);
#288=EDGE_CURVE('',#370,#388,#464,.T.);
#289=EDGE_CURVE('',#368,#389,#465,.T.);
#290=EDGE_CURVE('',#389,#390,#466,.T.);
#291=EDGE_CURVE('',#386,#390,#467,.T.);
#292=EDGE_CURVE('',#391,#384,#468,.T.);
#293=EDGE_CURVE('',#392,#391,#469,.T.);
#294=EDGE_CURVE('',#374,#392,#470,.T.);
#295=EDGE_CURVE('',#393,#372,#471,.T.);
#296=EDGE_CURVE('',#388,#393,#472,.T.);
#297=EDGE_CURVE('',#390,#394,#473,.T.);
#298=EDGE_CURVE('',#389,#395,#474,.T.);
#299=EDGE_CURVE('',#395,#394,#475,.T.);
#300=EDGE_CURVE('',#396,#379,#476,.T.);
#301=EDGE_CURVE('',#397,#396,#477,.T.);
#302=EDGE_CURVE('',#381,#397,#478,.T.);
#303=EDGE_CURVE('',#398,#383,#479,.T.);
#304=EDGE_CURVE('',#399,#398,#480,.T.);
#305=EDGE_CURVE('',#400,#399,#481,.T.);
#306=EDGE_CURVE('',#400,#401,#482,.T.);
#307=EDGE_CURVE('',#394,#401,#483,.T.);
#308=EDGE_CURVE('',#395,#377,#484,.T.);
#309=EDGE_CURVE('',#402,#400,#485,.T.);
#310=EDGE_CURVE('',#402,#403,#486,.T.);
#311=EDGE_CURVE('',#401,#403,#487,.T.);
#312=EDGE_CURVE('',#385,#402,#488,.T.);
#313=EDGE_CURVE('',#387,#403,#489,.T.);
#314=EDGE_CURVE('',#368,#377,#490,.T.);
#315=EDGE_CURVE('',#386,#401,#491,.T.);
#316=EDGE_CURVE('',#384,#400,#492,.T.);
#317=EDGE_CURVE('',#391,#399,#493,.T.);
#318=EDGE_CURVE('',#392,#398,#494,.T.);
#319=EDGE_CURVE('',#374,#383,#495,.T.);
#320=EDGE_CURVE('',#370,#379,#496,.T.);
#321=EDGE_CURVE('',#388,#396,#497,.T.);
#322=EDGE_CURVE('',#393,#397,#498,.T.);
#323=EDGE_CURVE('',#372,#381,#499,.T.);
#324=EDGE_CURVE('',#404,#405,#500,.T.);
#325=EDGE_CURVE('',#405,#406,#501,.T.);
#326=EDGE_CURVE('',#407,#406,#502,.T.);
#327=EDGE_CURVE('',#404,#407,#503,.T.);
#328=EDGE_CURVE('',#408,#409,#504,.T.);
#329=EDGE_CURVE('',#410,#408,#505,.T.);
#330=EDGE_CURVE('',#410,#411,#506,.T.);
#331=EDGE_CURVE('',#411,#409,#507,.T.);
#332=EDGE_CURVE('',#412,#413,#508,.T.);
#333=EDGE_CURVE('',#414,#412,#509,.T.);
#334=EDGE_CURVE('',#414,#415,#510,.T.);
#335=EDGE_CURVE('',#415,#413,#511,.T.);
#336=EDGE_CURVE('',#404,#416,#512,.T.);
#337=EDGE_CURVE('',#413,#407,#513,.T.);
#338=EDGE_CURVE('',#415,#417,#514,.T.);
#339=EDGE_CURVE('',#417,#418,#515,.T.);
#340=EDGE_CURVE('',#419,#418,#516,.T.);
#341=EDGE_CURVE('',#420,#419,#517,.T.);
#342=EDGE_CURVE('',#410,#420,#518,.T.);
#343=EDGE_CURVE('',#421,#408,#519,.T.);
#344=EDGE_CURVE('',#416,#421,#520,.T.);
#345=EDGE_CURVE('',#418,#422,#521,.T.);
#346=EDGE_CURVE('',#417,#423,#522,.T.);
#347=EDGE_CURVE('',#423,#422,#523,.T.);
#348=EDGE_CURVE('',#424,#405,#524,.T.);
#349=EDGE_CURVE('',#425,#424,#525,.T.);
#350=EDGE_CURVE('',#409,#425,#526,.T.);
#351=EDGE_CURVE('',#426,#411,#527,.T.);
#352=EDGE_CURVE('',#427,#426,#528,.T.);
#353=EDGE_CURVE('',#422,#427,#529,.T.);
#354=EDGE_CURVE('',#423,#414,#530,.T.);
#355=EDGE_CURVE('',#406,#412,#531,.T.);
#356=EDGE_CURVE('',#419,#427,#532,.T.);
#357=EDGE_CURVE('',#420,#426,#533,.T.);
#358=EDGE_CURVE('',#416,#424,#534,.T.);
#359=EDGE_CURVE('',#421,#425,#535,.T.);
#360=VERTEX_POINT('',#1103);
#361=VERTEX_POINT('',#1104);
#362=VERTEX_POINT('',#1106);
#363=VERTEX_POINT('',#1108);
#364=VERTEX_POINT('',#1112);
#365=VERTEX_POINT('',#1114);
#366=VERTEX_POINT('',#1118);
#367=VERTEX_POINT('',#1120);
#368=VERTEX_POINT('',#1130);
#369=VERTEX_POINT('',#1131);
#370=VERTEX_POINT('',#1133);
#371=VERTEX_POINT('',#1135);
#372=VERTEX_POINT('',#1139);
#373=VERTEX_POINT('',#1140);
#374=VERTEX_POINT('',#1142);
#375=VERTEX_POINT('',#1144);
#376=VERTEX_POINT('',#1148);
#377=VERTEX_POINT('',#1149);
#378=VERTEX_POINT('',#1151);
#379=VERTEX_POINT('',#1153);
#380=VERTEX_POINT('',#1157);
#381=VERTEX_POINT('',#1158);
#382=VERTEX_POINT('',#1160);
#383=VERTEX_POINT('',#1162);
#384=VERTEX_POINT('',#1172);
#385=VERTEX_POINT('',#1173);
#386=VERTEX_POINT('',#1175);
#387=VERTEX_POINT('',#1177);
#388=VERTEX_POINT('',#1181);
#389=VERTEX_POINT('',#1183);
#390=VERTEX_POINT('',#1185);
#391=VERTEX_POINT('',#1188);
#392=VERTEX_POINT('',#1190);
#393=VERTEX_POINT('',#1193);
#394=VERTEX_POINT('',#1197);
#395=VERTEX_POINT('',#1199);
#396=VERTEX_POINT('',#1203);
#397=VERTEX_POINT('',#1205);
#398=VERTEX_POINT('',#1208);
#399=VERTEX_POINT('',#1210);
#400=VERTEX_POINT('',#1212);
#401=VERTEX_POINT('',#1214);
#402=VERTEX_POINT('',#1219);
#403=VERTEX_POINT('',#1221);
#404=VERTEX_POINT('',#1253);
#405=VERTEX_POINT('',#1254);
#406=VERTEX_POINT('',#1256);
#407=VERTEX_POINT('',#1258);
#408=VERTEX_POINT('',#1262);
#409=VERTEX_POINT('',#1263);
#410=VERTEX_POINT('',#1265);
#411=VERTEX_POINT('',#1267);
#412=VERTEX_POINT('',#1271);
#413=VERTEX_POINT('',#1272);
#414=VERTEX_POINT('',#1274);
#415=VERTEX_POINT('',#1276);
#416=VERTEX_POINT('',#1280);
#417=VERTEX_POINT('',#1283);
#418=VERTEX_POINT('',#1285);
#419=VERTEX_POINT('',#1287);
#420=VERTEX_POINT('',#1289);
#421=VERTEX_POINT('',#1292);
#422=VERTEX_POINT('',#1296);
#423=VERTEX_POINT('',#1298);
#424=VERTEX_POINT('',#1302);
#425=VERTEX_POINT('',#1304);
#426=VERTEX_POINT('',#1307);
#427=VERTEX_POINT('',#1309);
#428=LINE('',#1102,#536);
#429=LINE('',#1105,#537);
#430=LINE('',#1107,#538);
#431=LINE('',#1109,#539);
#432=LINE('',#1111,#540);
#433=LINE('',#1113,#541);
#434=LINE('',#1115,#542);
#435=LINE('',#1117,#543);
#436=LINE('',#1119,#544);
#437=LINE('',#1121,#545);
#438=LINE('',#1123,#546);
#439=LINE('',#1124,#547);
#440=LINE('',#1129,#548);
#441=LINE('',#1132,#549);
#442=LINE('',#1134,#550);
#443=LINE('',#1136,#551);
#444=LINE('',#1138,#552);
#445=LINE('',#1141,#553);
#446=LINE('',#1143,#554);
#447=LINE('',#1145,#555);
#448=LINE('',#1147,#556);
#449=LINE('',#1150,#557);
#450=LINE('',#1152,#558);
#451=LINE('',#1154,#559);
#452=LINE('',#1156,#560);
#453=LINE('',#1159,#561);
#454=LINE('',#1161,#562);
#455=LINE('',#1163,#563);
#456=LINE('',#1165,#564);
#457=LINE('',#1166,#565);
#458=LINE('',#1168,#566);
#459=LINE('',#1169,#567);
#460=LINE('',#1171,#568);
#461=LINE('',#1174,#569);
#462=LINE('',#1176,#570);
#463=LINE('',#1178,#571);
#464=LINE('',#1180,#572);
#465=LINE('',#1182,#573);
#466=LINE('',#1184,#574);
#467=LINE('',#1186,#575);
#468=LINE('',#1187,#576);
#469=LINE('',#1189,#577);
#470=LINE('',#1191,#578);
#471=LINE('',#1192,#579);
#472=LINE('',#1194,#580);
#473=LINE('',#1196,#581);
#474=LINE('',#1198,#582);
#475=LINE('',#1200,#583);
#476=LINE('',#1202,#584);
#477=LINE('',#1204,#585);
#478=LINE('',#1206,#586);
#479=LINE('',#1207,#587);
#480=LINE('',#1209,#588);
#481=LINE('',#1211,#589);
#482=LINE('',#1213,#590);
#483=LINE('',#1215,#591);
#484=LINE('',#1216,#592);
#485=LINE('',#1218,#593);
#486=LINE('',#1220,#594);
#487=LINE('',#1222,#595);
#488=LINE('',#1224,#596);
#489=LINE('',#1225,#597);
#490=LINE('',#1227,#598);
#491=LINE('',#1229,#599);
#492=LINE('',#1233,#600);
#493=LINE('',#1235,#601);
#494=LINE('',#1237,#602);
#495=LINE('',#1239,#603);
#496=LINE('',#1242,#604);
#497=LINE('',#1244,#605);
#498=LINE('',#1246,#606);
#499=LINE('',#1248,#607);
#500=LINE('',#1252,#608);
#501=LINE('',#1255,#609);
#502=LINE('',#1257,#610);
#503=LINE('',#1259,#611);
#504=LINE('',#1261,#612);
#505=LINE('',#1264,#613);
#506=LINE('',#1266,#614);
#507=LINE('',#1268,#615);
#508=LINE('',#1270,#616);
#509=LINE('',#1273,#617);
#510=LINE('',#1275,#618);
#511=LINE('',#1277,#619);
#512=LINE('',#1279,#620);
#513=LINE('',#1281,#621);
#514=LINE('',#1282,#622);
#515=LINE('',#1284,#623);
#516=LINE('',#1286,#624);
#517=LINE('',#1288,#625);
#518=LINE('',#1290,#626);
#519=LINE('',#1291,#627);
#520=LINE('',#1293,#628);
#521=LINE('',#1295,#629);
#522=LINE('',#1297,#630);
#523=LINE('',#1299,#631);
#524=LINE('',#1301,#632);
#525=LINE('',#1303,#633);
#526=LINE('',#1305,#634);
#527=LINE('',#1306,#635);
#528=LINE('',#1308,#636);
#529=LINE('',#1310,#637);
#530=LINE('',#1311,#638);
#531=LINE('',#1312,#639);
#532=LINE('',#1316,#640);
#533=LINE('',#1318,#641);
#534=LINE('',#1321,#642);
#535=LINE('',#1323,#643);
#536=VECTOR('',#896,39.3700787401575);
#537=VECTOR('',#897,39.3700787401575);
#538=VECTOR('',#898,39.3700787401575);
#539=VECTOR('',#899,39.3700787401575);
#540=VECTOR('',#902,39.3700787401575);
#541=VECTOR('',#903,39.3700787401575);
#542=VECTOR('',#904,39.3700787401575);
#543=VECTOR('',#907,39.3700787401575);
#544=VECTOR('',#908,39.3700787401575);
#545=VECTOR('',#909,39.3700787401575);
#546=VECTOR('',#912,39.3700787401575);
#547=VECTOR('',#913,39.3700787401575);
#548=VECTOR('',#922,39.3700787401575);
#549=VECTOR('',#923,39.3700787401575);
#550=VECTOR('',#924,39.3700787401575);
#551=VECTOR('',#925,39.3700787401575);
#552=VECTOR('',#928,39.3700787401575);
#553=VECTOR('',#929,39.3700787401575);
#554=VECTOR('',#930,39.3700787401575);
#555=VECTOR('',#931,39.3700787401575);
#556=VECTOR('',#934,39.3700787401575);
#557=VECTOR('',#935,39.3700787401575);
#558=VECTOR('',#936,39.3700787401575);
#559=VECTOR('',#937,39.3700787401575);
#560=VECTOR('',#940,39.3700787401575);
#561=VECTOR('',#941,39.3700787401575);
#562=VECTOR('',#942,39.3700787401575);
#563=VECTOR('',#943,39.3700787401575);
#564=VECTOR('',#946,39.3700787401575);
#565=VECTOR('',#947,39.3700787401575);
#566=VECTOR('',#950,39.3700787401575);
#567=VECTOR('',#951,39.3700787401575);
#568=VECTOR('',#954,39.3700787401575);
#569=VECTOR('',#955,39.3700787401575);
#570=VECTOR('',#956,39.3700787401575);
#571=VECTOR('',#957,39.3700787401575);
#572=VECTOR('',#960,39.3700787401575);
#573=VECTOR('',#961,39.3700787401575);
#574=VECTOR('',#962,39.3700787401575);
#575=VECTOR('',#963,39.3700787401575);
#576=VECTOR('',#964,39.3700787401575);
#577=VECTOR('',#965,39.3700787401575);
#578=VECTOR('',#966,39.3700787401575);
#579=VECTOR('',#967,39.3700787401575);
#580=VECTOR('',#968,39.3700787401575);
#581=VECTOR('',#971,39.3700787401575);
#582=VECTOR('',#972,39.3700787401575);
#583=VECTOR('',#973,39.3700787401575);
#584=VECTOR('',#976,39.3700787401575);
#585=VECTOR('',#977,39.3700787401575);
#586=VECTOR('',#978,39.3700787401575);
#587=VECTOR('',#979,39.3700787401575);
#588=VECTOR('',#980,39.3700787401575);
#589=VECTOR('',#981,39.3700787401575);
#590=VECTOR('',#982,39.3700787401575);
#591=VECTOR('',#983,39.3700787401575);
#592=VECTOR('',#984,39.3700787401575);
#593=VECTOR('',#987,39.3700787401575);
#594=VECTOR('',#988,39.3700787401575);
#595=VECTOR('',#989,39.3700787401575);
#596=VECTOR('',#992,39.3700787401575);
#597=VECTOR('',#993,39.3700787401575);
#598=VECTOR('',#996,39.3700787401575);
#599=VECTOR('',#999,39.3700787401575);
#600=VECTOR('',#1006,39.3700787401575);
#601=VECTOR('',#1009,39.3700787401575);
#602=VECTOR('',#1012,39.3700787401575);
#603=VECTOR('',#1015,39.3700787401575);
#604=VECTOR('',#1020,39.3700787401575);
#605=VECTOR('',#1023,39.3700787401575);
#606=VECTOR('',#1026,39.3700787401575);
#607=VECTOR('',#1029,39.3700787401575);
#608=VECTOR('',#1036,39.3700787401575);
#609=VECTOR('',#1037,39.3700787401575);
#610=VECTOR('',#1038,39.3700787401575);
#611=VECTOR('',#1039,39.3700787401575);
#612=VECTOR('',#1042,39.3700787401575);
#613=VECTOR('',#1043,39.3700787401575);
#614=VECTOR('',#1044,39.3700787401575);
#615=VECTOR('',#1045,39.3700787401575);
#616=VECTOR('',#1048,39.3700787401575);
#617=VECTOR('',#1049,39.3700787401575);
#618=VECTOR('',#1050,39.3700787401575);
#619=VECTOR('',#1051,39.3700787401575);
#620=VECTOR('',#1054,39.3700787401575);
#621=VECTOR('',#1055,39.3700787401575);
#622=VECTOR('',#1056,39.3700787401575);
#623=VECTOR('',#1057,39.3700787401575);
#624=VECTOR('',#1058,39.3700787401575);
#625=VECTOR('',#1059,39.3700787401575);
#626=VECTOR('',#1060,39.3700787401575);
#627=VECTOR('',#1061,39.3700787401575);
#628=VECTOR('',#1062,39.3700787401575);
#629=VECTOR('',#1065,39.3700787401575);
#630=VECTOR('',#1066,39.3700787401575);
#631=VECTOR('',#1067,39.3700787401575);
#632=VECTOR('',#1070,39.3700787401575);
#633=VECTOR('',#1071,39.3700787401575);
#634=VECTOR('',#1072,39.3700787401575);
#635=VECTOR('',#1073,39.3700787401575);
#636=VECTOR('',#1074,39.3700787401575);
#637=VECTOR('',#1075,39.3700787401575);
#638=VECTOR('',#1076,39.3700787401575);
#639=VECTOR('',#1077,39.3700787401575);
#640=VECTOR('',#1084,39.3700787401575);
#641=VECTOR('',#1087,39.3700787401575);
#642=VECTOR('',#1092,39.3700787401575);
#643=VECTOR('',#1095,39.3700787401575);
#644=EDGE_LOOP('',(#36,#37,#38,#39));
#645=EDGE_LOOP('',(#40,#41,#42,#43));
#646=EDGE_LOOP('',(#44,#45,#46,#47));
#647=EDGE_LOOP('',(#48,#49,#50,#51));
#648=EDGE_LOOP('',(#52,#53,#54,#55));
#649=EDGE_LOOP('',(#56,#57,#58,#59));
#650=EDGE_LOOP('',(#60,#61,#62,#63));
#651=EDGE_LOOP('',(#64,#65,#66,#67));
#652=EDGE_LOOP('',(#68,#69,#70,#71));
#653=EDGE_LOOP('',(#72,#73,#74,#75));
#654=EDGE_LOOP('',(#76,#77,#78,#79));
#655=EDGE_LOOP('',(#80,#81,#82,#83));
#656=EDGE_LOOP('',(#84,#85,#86,#87));
#657=EDGE_LOOP('',(#88,#89,#90,#91,#92,#93,#94,#95,#96,#97,#98,#99));
#658=EDGE_LOOP('',(#100,#101,#102,#103));
#659=EDGE_LOOP('',(#104,#105,#106,#107,#108,#109,#110,#111,#112,#113,#114,
#115));
#660=EDGE_LOOP('',(#116,#117,#118,#119));
#661=EDGE_LOOP('',(#120,#121,#122,#123));
#662=EDGE_LOOP('',(#124,#125,#126,#127));
#663=EDGE_LOOP('',(#128,#129,#130,#131));
#664=EDGE_LOOP('',(#132,#133,#134,#135));
#665=EDGE_LOOP('',(#136,#137,#138,#139));
#666=EDGE_LOOP('',(#140,#141,#142,#143));
#667=EDGE_LOOP('',(#144,#145,#146,#147));
#668=EDGE_LOOP('',(#148,#149,#150,#151));
#669=EDGE_LOOP('',(#152,#153,#154,#155));
#670=EDGE_LOOP('',(#156,#157,#158,#159));
#671=EDGE_LOOP('',(#160,#161,#162,#163));
#672=EDGE_LOOP('',(#164,#165,#166,#167));
#673=EDGE_LOOP('',(#168,#169,#170,#171));
#674=EDGE_LOOP('',(#172,#173,#174,#175));
#675=EDGE_LOOP('',(#176,#177,#178,#179));
#676=EDGE_LOOP('',(#180,#181,#182,#183));
#677=EDGE_LOOP('',(#184,#185,#186,#187));
#678=EDGE_LOOP('',(#188,#189,#190,#191));
#679=EDGE_LOOP('',(#192,#193,#194,#195,#196,#197,#198,#199,#200,#201,#202,
#203));
#680=EDGE_LOOP('',(#204,#205,#206,#207));
#681=EDGE_LOOP('',(#208,#209,#210,#211,#212,#213,#214,#215,#216,#217,#218,
#219));
#682=EDGE_LOOP('',(#220,#221,#222,#223));
#683=EDGE_LOOP('',(#224,#225,#226,#227));
#684=EDGE_LOOP('',(#228,#229,#230,#231));
#685=EDGE_LOOP('',(#232,#233,#234,#235));
#686=EDGE_LOOP('',(#236,#237,#238,#239));
#687=EDGE_LOOP('',(#240,#241,#242,#243));
#688=EDGE_LOOP('',(#244,#245,#246,#247));
#689=EDGE_LOOP('',(#248,#249,#250,#251));
#690=FACE_BOUND('',#644,.T.);
#691=FACE_BOUND('',#645,.T.);
#692=FACE_BOUND('',#646,.T.);
#693=FACE_BOUND('',#647,.T.);
#694=FACE_BOUND('',#648,.T.);
#695=FACE_BOUND('',#649,.T.);
#696=FACE_BOUND('',#650,.T.);
#697=FACE_BOUND('',#651,.T.);
#698=FACE_BOUND('',#652,.T.);
#699=FACE_BOUND('',#653,.T.);
#700=FACE_BOUND('',#654,.T.);
#701=FACE_BOUND('',#655,.T.);
#702=FACE_BOUND('',#656,.T.);
#703=FACE_BOUND('',#657,.T.);
#704=FACE_BOUND('',#658,.T.);
#705=FACE_BOUND('',#659,.T.);
#706=FACE_BOUND('',#660,.T.);
#707=FACE_BOUND('',#661,.T.);
#708=FACE_BOUND('',#662,.T.);
#709=FACE_BOUND('',#663,.T.);
#710=FACE_BOUND('',#664,.T.);
#711=FACE_BOUND('',#665,.T.);
#712=FACE_BOUND('',#666,.T.);
#713=FACE_BOUND('',#667,.T.);
#714=FACE_BOUND('',#668,.T.);
#715=FACE_BOUND('',#669,.T.);
#716=FACE_BOUND('',#670,.T.);
#717=FACE_BOUND('',#671,.T.);
#718=FACE_BOUND('',#672,.T.);
#719=FACE_BOUND('',#673,.T.);
#720=FACE_BOUND('',#674,.T.);
#721=FACE_BOUND('',#675,.T.);
#722=FACE_BOUND('',#676,.T.);
#723=FACE_BOUND('',#677,.T.);
#724=FACE_BOUND('',#678,.T.);
#725=FACE_BOUND('',#679,.T.);
#726=FACE_BOUND('',#680,.T.);
#727=FACE_BOUND('',#681,.T.);
#728=FACE_BOUND('',#682,.T.);
#729=FACE_BOUND('',#683,.T.);
#730=FACE_BOUND('',#684,.T.);
#731=FACE_BOUND('',#685,.T.);
#732=FACE_BOUND('',#686,.T.);
#733=FACE_BOUND('',#687,.T.);
#734=FACE_BOUND('',#688,.T.);
#735=FACE_BOUND('',#689,.T.);
#736=PLANE('',#843);
#737=PLANE('',#844);
#738=PLANE('',#845);
#739=PLANE('',#846);
#740=PLANE('',#847);
#741=PLANE('',#848);
#742=PLANE('',#850);
#743=PLANE('',#851);
#744=PLANE('',#852);
#745=PLANE('',#853);
#746=PLANE('',#854);
#747=PLANE('',#855);
#748=PLANE('',#856);
#749=PLANE('',#857);
#750=PLANE('',#858);
#751=PLANE('',#859);
#752=PLANE('',#860);
#753=PLANE('',#861);
#754=PLANE('',#862);
#755=PLANE('',#863);
#756=PLANE('',#864);
#757=PLANE('',#865);
#758=PLANE('',#866);
#759=PLANE('',#867);
#760=PLANE('',#868);
#761=PLANE('',#869);
#762=PLANE('',#870);
#763=PLANE('',#871);
#764=PLANE('',#872);
#765=PLANE('',#873);
#766=PLANE('',#874);
#767=PLANE('',#875);
#768=PLANE('',#877);
#769=PLANE('',#878);
#770=PLANE('',#879);
#771=PLANE('',#880);
#772=PLANE('',#881);
#773=PLANE('',#882);
#774=PLANE('',#883);
#775=PLANE('',#884);
#776=PLANE('',#885);
#777=PLANE('',#886);
#778=PLANE('',#887);
#779=PLANE('',#888);
#780=PLANE('',#889);
#781=PLANE('',#890);
#782=ADVANCED_FACE('',(#690),#736,.F.);
#783=ADVANCED_FACE('',(#691),#737,.F.);
#784=ADVANCED_FACE('',(#692),#738,.F.);
#785=ADVANCED_FACE('',(#693),#739,.F.);
#786=ADVANCED_FACE('',(#694),#740,.T.);
#787=ADVANCED_FACE('',(#695),#741,.F.);
#788=ADVANCED_FACE('',(#696),#742,.T.);
#789=ADVANCED_FACE('',(#697),#743,.T.);
#790=ADVANCED_FACE('',(#698),#744,.T.);
#791=ADVANCED_FACE('',(#699),#745,.T.);
#792=ADVANCED_FACE('',(#700),#746,.T.);
#793=ADVANCED_FACE('',(#701),#747,.T.);
#794=ADVANCED_FACE('',(#702),#748,.T.);
#795=ADVANCED_FACE('',(#703),#749,.T.);
#796=ADVANCED_FACE('',(#704),#750,.T.);
#797=ADVANCED_FACE('',(#705),#751,.T.);
#798=ADVANCED_FACE('',(#706),#752,.T.);
#799=ADVANCED_FACE('',(#707),#753,.T.);
#800=ADVANCED_FACE('',(#708),#754,.F.);
#801=ADVANCED_FACE('',(#709),#755,.T.);
#802=ADVANCED_FACE('',(#710),#756,.F.);
#803=ADVANCED_FACE('',(#711),#757,.F.);
#804=ADVANCED_FACE('',(#712),#758,.F.);
#805=ADVANCED_FACE('',(#713),#759,.F.);
#806=ADVANCED_FACE('',(#714),#760,.F.);
#807=ADVANCED_FACE('',(#715),#761,.F.);
#808=ADVANCED_FACE('',(#716),#762,.F.);
#809=ADVANCED_FACE('',(#717),#763,.F.);
#810=ADVANCED_FACE('',(#718),#764,.F.);
#811=ADVANCED_FACE('',(#719),#765,.F.);
#812=ADVANCED_FACE('',(#720),#766,.F.);
#813=ADVANCED_FACE('',(#721),#767,.F.);
#814=ADVANCED_FACE('',(#722),#768,.T.);
#815=ADVANCED_FACE('',(#723),#769,.T.);
#816=ADVANCED_FACE('',(#724),#770,.T.);
#817=ADVANCED_FACE('',(#725),#771,.T.);
#818=ADVANCED_FACE('',(#726),#772,.T.);
#819=ADVANCED_FACE('',(#727),#773,.T.);
#820=ADVANCED_FACE('',(#728),#774,.F.);
#821=ADVANCED_FACE('',(#729),#775,.T.);
#822=ADVANCED_FACE('',(#730),#776,.F.);
#823=ADVANCED_FACE('',(#731),#777,.F.);
#824=ADVANCED_FACE('',(#732),#778,.F.);
#825=ADVANCED_FACE('',(#733),#779,.F.);
#826=ADVANCED_FACE('',(#734),#780,.F.);
#827=ADVANCED_FACE('',(#735),#781,.F.);
#828=CLOSED_SHELL('',(#782,#783,#784,#785,#786,#787));
#829=CLOSED_SHELL('',(#788,#789,#790,#791,#792,#793,#794,#795,#796,#797,
#798,#799,#800,#801,#802,#803,#804,#805,#806,#807,#808,#809,#810,#811,#812,
#813));
#830=CLOSED_SHELL('',(#814,#815,#816,#817,#818,#819,#820,#821,#822,#823,
#824,#825,#826,#827));
#831=MANIFOLD_SOLID_BREP('FTS-103-01-F-S_body',#828);
#832=MANIFOLD_SOLID_BREP('FTS-103-01-F-S_pins1',#829);
#833=MANIFOLD_SOLID_BREP('FTS-103-01-F-S_pins2',#830);
#834=SHAPE_DEFINITION_REPRESENTATION(#1340,#838);
#835=SHAPE_DEFINITION_REPRESENTATION(#1341,#839);
#836=SHAPE_DEFINITION_REPRESENTATION(#1343,#840);
#837=SHAPE_DEFINITION_REPRESENTATION(#1345,#841);
#838=SHAPE_REPRESENTATION('FTS-103-01-F-S',(#842,#849,#876,#891),#1326);
#839=SHAPE_REPRESENTATION('FTS-103-01-F-S_body',(#842),#1327);
#840=SHAPE_REPRESENTATION('FTS-103-01-F-S_pins1',(#842),#1328);
#841=SHAPE_REPRESENTATION('FTS-103-01-F-S_pins2',(#842),#1329);
#842=AXIS2_PLACEMENT_3D('',#1100,#892,#893);
#843=AXIS2_PLACEMENT_3D('',#1101,#894,#895);
#844=AXIS2_PLACEMENT_3D('',#1110,#900,#901);
#845=AXIS2_PLACEMENT_3D('',#1116,#905,#906);
#846=AXIS2_PLACEMENT_3D('',#1122,#910,#911);
#847=AXIS2_PLACEMENT_3D('',#1125,#914,#915);
#848=AXIS2_PLACEMENT_3D('',#1126,#916,#917);
#849=AXIS2_PLACEMENT_3D('',#1127,#918,#919);
#850=AXIS2_PLACEMENT_3D('',#1128,#920,#921);
#851=AXIS2_PLACEMENT_3D('',#1137,#926,#927);
#852=AXIS2_PLACEMENT_3D('',#1146,#932,#933);
#853=AXIS2_PLACEMENT_3D('',#1155,#938,#939);
#854=AXIS2_PLACEMENT_3D('',#1164,#944,#945);
#855=AXIS2_PLACEMENT_3D('',#1167,#948,#949);
#856=AXIS2_PLACEMENT_3D('',#1170,#952,#953);
#857=AXIS2_PLACEMENT_3D('',#1179,#958,#959);
#858=AXIS2_PLACEMENT_3D('',#1195,#969,#970);
#859=AXIS2_PLACEMENT_3D('',#1201,#974,#975);
#860=AXIS2_PLACEMENT_3D('',#1217,#985,#986);
#861=AXIS2_PLACEMENT_3D('',#1223,#990,#991);
#862=AXIS2_PLACEMENT_3D('',#1226,#994,#995);
#863=AXIS2_PLACEMENT_3D('',#1228,#997,#998);
#864=AXIS2_PLACEMENT_3D('',#1230,#1000,#1001);
#865=AXIS2_PLACEMENT_3D('',#1231,#1002,#1003);
#866=AXIS2_PLACEMENT_3D('',#1232,#1004,#1005);
#867=AXIS2_PLACEMENT_3D('',#1234,#1007,#1008);
#868=AXIS2_PLACEMENT_3D('',#1236,#1010,#1011);
#869=AXIS2_PLACEMENT_3D('',#1238,#1013,#1014);
#870=AXIS2_PLACEMENT_3D('',#1240,#1016,#1017);
#871=AXIS2_PLACEMENT_3D('',#1241,#1018,#1019);
#872=AXIS2_PLACEMENT_3D('',#1243,#1021,#1022);
#873=AXIS2_PLACEMENT_3D('',#1245,#1024,#1025);
#874=AXIS2_PLACEMENT_3D('',#1247,#1027,#1028);
#875=AXIS2_PLACEMENT_3D('',#1249,#1030,#1031);
#876=AXIS2_PLACEMENT_3D('',#1250,#1032,#1033);
#877=AXIS2_PLACEMENT_3D('',#1251,#1034,#1035);
#878=AXIS2_PLACEMENT_3D('',#1260,#1040,#1041);
#879=AXIS2_PLACEMENT_3D('',#1269,#1046,#1047);
#880=AXIS2_PLACEMENT_3D('',#1278,#1052,#1053);
#881=AXIS2_PLACEMENT_3D('',#1294,#1063,#1064);
#882=AXIS2_PLACEMENT_3D('',#1300,#1068,#1069);
#883=AXIS2_PLACEMENT_3D('',#1313,#1078,#1079);
#884=AXIS2_PLACEMENT_3D('',#1314,#1080,#1081);
#885=AXIS2_PLACEMENT_3D('',#1315,#1082,#1083);
#886=AXIS2_PLACEMENT_3D('',#1317,#1085,#1086);
#887=AXIS2_PLACEMENT_3D('',#1319,#1088,#1089);
#888=AXIS2_PLACEMENT_3D('',#1320,#1090,#1091);
#889=AXIS2_PLACEMENT_3D('',#1322,#1093,#1094);
#890=AXIS2_PLACEMENT_3D('',#1324,#1096,#1097);
#891=AXIS2_PLACEMENT_3D('',#1325,#1098,#1099);
#892=DIRECTION('',(0.,0.,1.));
#893=DIRECTION('',(1.,0.,0.));
#894=DIRECTION('',(1.,0.,0.));
#895=DIRECTION('',(0.,0.,-1.));
#896=DIRECTION('',(0.,0.,1.));
#897=DIRECTION('',(0.,-1.,0.));
#898=DIRECTION('',(0.,0.,1.));
#899=DIRECTION('',(0.,-1.,0.));
#900=DIRECTION('',(0.,0.,-1.));
#901=DIRECTION('',(-1.,0.,0.));
#902=DIRECTION('',(1.,0.,0.));
#903=DIRECTION('',(0.,-1.,0.));
#904=DIRECTION('',(1.,0.,0.));
#905=DIRECTION('',(-1.,0.,0.));
#906=DIRECTION('',(0.,0.,1.));
#907=DIRECTION('',(0.,0.,-1.));
#908=DIRECTION('',(0.,-1.,0.));
#909=DIRECTION('',(0.,0.,-1.));
#910=DIRECTION('',(0.,0.,1.));
#911=DIRECTION('',(1.,0.,0.));
#912=DIRECTION('',(-1.,0.,0.));
#913=DIRECTION('',(-1.,0.,0.));
#914=DIRECTION('',(0.,1.,0.));
#915=DIRECTION('',(0.,0.,1.));
#916=DIRECTION('',(0.,1.,0.));
#917=DIRECTION('',(0.,0.,1.));
#918=DIRECTION('',(0.,0.,1.));
#919=DIRECTION('',(1.,0.,0.));
#920=DIRECTION('',(0.,0.499999999999998,0.86602540378444));
#921=DIRECTION('',(0.,-0.86602540378444,0.499999999999998));
#922=DIRECTION('',(0.447213595500192,0.774596669241383,-0.447213595499897));
#923=DIRECTION('',(1.,0.,0.));
#924=DIRECTION('',(0.447213595499104,-0.774596669241854,0.447213595500169));
#925=DIRECTION('',(1.,0.,0.));
#926=DIRECTION('',(0.,0.499999999999998,0.86602540378444));
#927=DIRECTION('',(0.,-0.86602540378444,0.499999999999998));
#928=DIRECTION('',(0.4472135954999,0.77459666924151,-0.44721359549997));
#929=DIRECTION('',(1.,0.,0.));
#930=DIRECTION('',(0.44721359550059,-0.774596669241211,0.447213595499798));
#931=DIRECTION('',(1.,0.,0.));
#932=DIRECTION('',(0.,0.500000000000035,-0.866025403784419));
#933=DIRECTION('',(0.,0.866025403784419,0.500000000000035));
#934=DIRECTION('',(-0.447213595500183,-0.774596669241368,-0.447213595499933));
#935=DIRECTION('',(1.,0.,0.));
#936=DIRECTION('',(-0.447213595499095,0.774596669241839,0.447213595500205));
#937=DIRECTION('',(1.,0.,0.));
#938=DIRECTION('',(0.,0.500000000000035,-0.866025403784419));
#939=DIRECTION('',(0.,0.866025403784419,0.500000000000035));
#940=DIRECTION('',(-0.447213595499891,-0.774596669241495,-0.447213595500006));
#941=DIRECTION('',(1.,0.,0.));
#942=DIRECTION('',(-0.447213595500581,0.774596669241196,0.447213595499833));
#943=DIRECTION('',(1.,0.,0.));
#944=DIRECTION('',(0.,1.,0.));
#945=DIRECTION('',(0.,0.,1.));
#946=DIRECTION('',(0.,0.,-1.));
#947=DIRECTION('',(0.,0.,1.));
#948=DIRECTION('',(0.,1.,0.));
#949=DIRECTION('',(0.,0.,1.));
#950=DIRECTION('',(0.,0.,-1.));
#951=DIRECTION('',(0.,0.,1.));
#952=DIRECTION('',(0.,0.499999999999998,0.86602540378444));
#953=DIRECTION('',(0.,-0.86602540378444,0.499999999999998));
#954=DIRECTION('',(0.4472135954999,0.77459666924151,-0.44721359549997));
#955=DIRECTION('',(1.,0.,0.));
#956=DIRECTION('',(0.44721359550059,-0.774596669241211,0.447213595499798));
#957=DIRECTION('',(1.,0.,0.));
#958=DIRECTION('',(0.,-1.62920324049634E-17,1.));
#959=DIRECTION('',(0.,-1.,-1.62920324049634E-17));
#960=DIRECTION('',(-8.68549497985687E-14,-1.,-1.62920324049634E-17));
#961=DIRECTION('',(0.,-1.,-1.62920324049634E-17));
#962=DIRECTION('',(1.,0.,0.));
#963=DIRECTION('',(0.,-1.,-1.62920324049634E-17));
#964=DIRECTION('',(0.,1.,1.62920324049634E-17));
#965=DIRECTION('',(1.,0.,0.));
#966=DIRECTION('',(0.,-1.,-1.62920324049634E-17));
#967=DIRECTION('',(0.,1.,1.62920324049634E-17));
#968=DIRECTION('',(1.,0.,0.));
#969=DIRECTION('',(0.,-1.,8.00346091893852E-16));
#970=DIRECTION('',(0.,-8.00346091893852E-16,-1.));
#971=DIRECTION('',(0.,-8.00346091893852E-16,-1.));
#972=DIRECTION('',(0.,-8.00346091893852E-16,-1.));
#973=DIRECTION('',(1.,0.,0.));
#974=DIRECTION('',(0.,0.,-1.));
#975=DIRECTION('',(-1.,0.,0.));
#976=DIRECTION('',(8.68549497985687E-14,1.,0.));
#977=DIRECTION('',(-1.,0.,0.));
#978=DIRECTION('',(0.,-1.,0.));
#979=DIRECTION('',(0.,1.,0.));
#980=DIRECTION('',(-1.,0.,0.));
#981=DIRECTION('',(0.,-1.,0.));
#982=DIRECTION('',(1.,0.,0.));
#983=DIRECTION('',(0.,1.,0.));
#984=DIRECTION('',(0.,1.,0.));
#985=DIRECTION('',(0.,0.500000000000035,-0.866025403784419));
#986=DIRECTION('',(0.,0.866025403784419,0.500000000000035));
#987=DIRECTION('',(-0.447213595499891,-0.774596669241494,-0.447213595500006));
#988=DIRECTION('',(1.,0.,0.));
#989=DIRECTION('',(-0.447213595500581,0.774596669241196,0.447213595499833));
#990=DIRECTION('',(0.,1.,0.));
#991=DIRECTION('',(0.,0.,1.));
#992=DIRECTION('',(0.,0.,-1.));
#993=DIRECTION('',(0.,0.,-1.));
#994=DIRECTION('',(1.,0.,0.));
#995=DIRECTION('',(0.,0.,-1.));
#996=DIRECTION('',(0.,0.,-1.));
#997=DIRECTION('',(1.,0.,0.));
#998=DIRECTION('',(0.,0.,-1.));
#999=DIRECTION('',(0.,0.,-1.));
#1000=DIRECTION('',(-0.866025403784057,-0.500000000000662,0.));
#1001=DIRECTION('',(0.500000000000662,-0.866025403784057,0.));
#1002=DIRECTION('',(0.866025403784297,-0.500000000000245,0.));
#1003=DIRECTION('',(0.500000000000245,0.866025403784297,0.));
#1004=DIRECTION('',(0.866025403784474,-0.499999999999939,0.));
#1005=DIRECTION('',(0.499999999999939,0.866025403784474,0.));
#1006=DIRECTION('',(0.,0.,-1.));
#1007=DIRECTION('',(1.,0.,0.));
#1008=DIRECTION('',(0.,0.,-1.));
#1009=DIRECTION('',(0.,0.,-1.));
#1010=DIRECTION('',(0.,-1.,0.));
#1011=DIRECTION('',(0.,0.,-1.));
#1012=DIRECTION('',(0.,0.,-1.));
#1013=DIRECTION('',(-0.866025403784056,-0.500000000000662,0.));
#1014=DIRECTION('',(0.500000000000662,-0.866025403784057,0.));
#1015=DIRECTION('',(0.,0.,-1.));
#1016=DIRECTION('',(-1.,0.,0.));
#1017=DIRECTION('',(0.,0.,1.));
#1018=DIRECTION('',(-0.866025403784956,-0.499999999999105,0.));
#1019=DIRECTION('',(0.499999999999105,-0.866025403784956,0.));
#1020=DIRECTION('',(0.,0.,-1.));
#1021=DIRECTION('',(-1.,8.68549497985687E-14,0.));
#1022=DIRECTION('',(-8.68549497985687E-14,-1.,0.));
#1023=DIRECTION('',(0.,0.,-1.));
#1024=DIRECTION('',(0.,-1.,0.));
#1025=DIRECTION('',(0.,0.,-1.));
#1026=DIRECTION('',(0.,0.,-1.));
#1027=DIRECTION('',(1.,0.,0.));
#1028=DIRECTION('',(0.,0.,-1.));
#1029=DIRECTION('',(0.,0.,-1.));
#1030=DIRECTION('',(0.866025403784474,-0.499999999999938,0.));
#1031=DIRECTION('',(0.499999999999938,0.866025403784474,0.));
#1032=DIRECTION('',(0.,0.,1.));
#1033=DIRECTION('',(1.,0.,0.));
#1034=DIRECTION('',(0.,-1.,0.));
#1035=DIRECTION('',(0.,0.,-1.));
#1036=DIRECTION('',(0.,0.,-1.));
#1037=DIRECTION('',(1.,0.,0.));
#1038=DIRECTION('',(0.,0.,-1.));
#1039=DIRECTION('',(1.,0.,0.));
#1040=DIRECTION('',(0.,-1.,0.));
#1041=DIRECTION('',(0.,0.,-1.));
#1042=DIRECTION('',(0.,0.,-1.));
#1043=DIRECTION('',(1.,0.,0.));
#1044=DIRECTION('',(0.,0.,-1.));
#1045=DIRECTION('',(1.,0.,0.));
#1046=DIRECTION('',(0.,1.,0.));
#1047=DIRECTION('',(0.,0.,1.));
#1048=DIRECTION('',(0.,0.,1.));
#1049=DIRECTION('',(1.,0.,0.));
#1050=DIRECTION('',(0.,0.,1.));
#1051=DIRECTION('',(1.,0.,0.));
#1052=DIRECTION('',(0.,0.,1.));
#1053=DIRECTION('',(1.,0.,0.));
#1054=DIRECTION('',(-9.99685625181566E-14,1.,0.));
#1055=DIRECTION('',(0.,-1.,0.));
#1056=DIRECTION('',(0.,-1.,0.));
#1057=DIRECTION('',(1.,0.,0.));
#1058=DIRECTION('',(0.,-1.,0.));
#1059=DIRECTION('',(-1.,-1.25544485002879E-16,0.));
#1060=DIRECTION('',(-9.99152061120304E-14,1.,0.));
#1061=DIRECTION('',(-1.00192659423898E-13,-1.,0.));
#1062=DIRECTION('',(-1.,-1.88316727504319E-16,0.));
#1063=DIRECTION('',(0.,-1.,0.));
#1064=DIRECTION('',(0.,0.,-1.));
#1065=DIRECTION('',(0.,0.,-1.));
#1066=DIRECTION('',(0.,0.,-1.));
#1067=DIRECTION('',(1.,0.,0.));
#1068=DIRECTION('',(0.,0.,-1.));
#1069=DIRECTION('',(-1.,0.,0.));
#1070=DIRECTION('',(9.99685625181566E-14,-1.,0.));
#1071=DIRECTION('',(1.,1.88316727504319E-16,0.));
#1072=DIRECTION('',(1.00192659423898E-13,1.,0.));
#1073=DIRECTION('',(9.99152061120304E-14,-1.,0.));
#1074=DIRECTION('',(1.,1.25544485002879E-16,0.));
#1075=DIRECTION('',(0.,1.,0.));
#1076=DIRECTION('',(0.,1.,0.));
#1077=DIRECTION('',(0.,1.,0.));
#1078=DIRECTION('',(1.,0.,0.));
#1079=DIRECTION('',(0.,0.,-1.));
#1080=DIRECTION('',(1.,0.,0.));
#1081=DIRECTION('',(0.,0.,-1.));
#1082=DIRECTION('',(-1.,0.,0.));
#1083=DIRECTION('',(0.,0.,1.));
#1084=DIRECTION('',(0.,0.,-1.));
#1085=DIRECTION('',(-1.25544485002879E-16,1.,0.));
#1086=DIRECTION('',(-1.,-1.25544485002879E-16,0.));
#1087=DIRECTION('',(0.,0.,-1.));
#1088=DIRECTION('',(1.,9.99152061120304E-14,0.));
#1089=DIRECTION('',(-9.99152061120304E-14,1.,0.));
#1090=DIRECTION('',(1.,9.99685625181566E-14,0.));
#1091=DIRECTION('',(-9.99685625181566E-14,1.,0.));
#1092=DIRECTION('',(0.,0.,-1.));
#1093=DIRECTION('',(-1.88316727504319E-16,1.,0.));
#1094=DIRECTION('',(-1.,-1.88316727504319E-16,0.));
#1095=DIRECTION('',(0.,0.,-1.));
#1096=DIRECTION('',(-1.,1.00192659423898E-13,0.));
#1097=DIRECTION('',(-1.00192659423898E-13,-1.,0.));
#1098=DIRECTION('',(0.,0.,1.));
#1099=DIRECTION('',(1.,0.,0.));
#1100=CARTESIAN_POINT('',(0.,0.,0.));
#1101=CARTESIAN_POINT('',(-0.075,0.034,-0.0425));
#1102=CARTESIAN_POINT('',(-0.075,0.,-0.0425));
#1103=CARTESIAN_POINT('',(-0.075,0.,-0.0425));
#1104=CARTESIAN_POINT('',(-0.075,0.,0.0425));
#1105=CARTESIAN_POINT('',(-0.075,0.034,0.0425));
#1106=CARTESIAN_POINT('',(-0.075,0.034,0.0425));
#1107=CARTESIAN_POINT('',(-0.075,0.034,-0.0425));
#1108=CARTESIAN_POINT('',(-0.075,0.034,-0.0425));
#1109=CARTESIAN_POINT('',(-0.075,0.034,-0.0425));
#1110=CARTESIAN_POINT('',(-0.075,0.034,0.0425));
#1111=CARTESIAN_POINT('',(-0.075,0.,0.0425));
#1112=CARTESIAN_POINT('',(0.075,0.,0.0425));
#1113=CARTESIAN_POINT('',(0.075,0.034,0.0425));
#1114=CARTESIAN_POINT('',(0.075,0.034,0.0425));
#1115=CARTESIAN_POINT('',(-0.075,0.034,0.0425));
#1116=CARTESIAN_POINT('',(0.075,0.034,0.0425));
#1117=CARTESIAN_POINT('',(0.075,0.,0.0425));
#1118=CARTESIAN_POINT('',(0.075,0.,-0.0425));
#1119=CARTESIAN_POINT('',(0.075,0.034,-0.0425));
#1120=CARTESIAN_POINT('',(0.075,0.034,-0.0425));
#1121=CARTESIAN_POINT('',(0.075,0.034,0.0425));
#1122=CARTESIAN_POINT('',(0.075,0.034,-0.0425));
#1123=CARTESIAN_POINT('',(0.075,0.,-0.0425));
#1124=CARTESIAN_POINT('',(0.075,0.034,-0.0425));
#1125=CARTESIAN_POINT('',(0.,0.034,0.));
#1126=CARTESIAN_POINT('',(0.,0.,0.));
#1127=CARTESIAN_POINT('',(0.,0.,0.));
#1128=CARTESIAN_POINT('',(-0.058,0.154,0.0028038475772929));
#1129=CARTESIAN_POINT('',(-0.0538430780618548,0.152200000000008,0.00384307806182988));
#1130=CARTESIAN_POINT('',(-0.05800000000003,0.144999999999995,0.00799999999999968));
#1131=CARTESIAN_POINT('',(-0.05280384757732,0.153999999999995,0.0028038475772929));
#1132=CARTESIAN_POINT('',(-0.058,0.145,0.0079999999999997));
#1133=CARTESIAN_POINT('',(-0.04200000000003,0.144999999999995,0.00799999999999968));
#1134=CARTESIAN_POINT('',(-0.0493569219381734,0.157742562584208,0.000643078061841426));
#1135=CARTESIAN_POINT('',(-0.04719615242273,0.154000000000005,0.0028038475772929));
#1136=CARTESIAN_POINT('',(-0.058,0.154,0.0028038475772929));
#1137=CARTESIAN_POINT('',(-0.058,0.154,0.0028038475772929));
#1138=CARTESIAN_POINT('',(-0.0138430780618555,0.134879491924323,0.0138430780618272));
#1139=CARTESIAN_POINT('',(-0.00800000000001999,0.145000000000015,0.00799999999999968));
#1140=CARTESIAN_POINT('',(-0.00280384757732293,0.154,0.0028038475772929));
#1141=CARTESIAN_POINT('',(-0.058,0.145,0.0079999999999997));
#1142=CARTESIAN_POINT('',(0.00799999999998002,0.145000000000015,0.00799999999999968));
#1143=CARTESIAN_POINT('',(-0.00935692193821608,0.175063070659924,-0.00935692193817451));
#1144=CARTESIAN_POINT('',(0.00280384757726998,0.154000000000005,0.0028038475772929));
#1145=CARTESIAN_POINT('',(-0.058,0.154,0.0028038475772929));
#1146=CARTESIAN_POINT('',(-0.058,0.145,-0.0079999999999998));
#1147=CARTESIAN_POINT('',(-0.0580000000000216,0.14500000000001,-0.00799999999999441));
#1148=CARTESIAN_POINT('',(-0.05280384757732,0.153999999999995,-0.0028038475772929));
#1149=CARTESIAN_POINT('',(-0.058,0.145,-0.0079999999999998));
#1150=CARTESIAN_POINT('',(-0.058,0.154,-0.0028038475772929));
#1151=CARTESIAN_POINT('',(-0.04719615242273,0.154000000000005,-0.0028038475772929));
#1152=CARTESIAN_POINT('',(-0.0452000000000141,0.150542562584201,-0.00480000000001083));
#1153=CARTESIAN_POINT('',(-0.04200000000003,0.144999999999995,-0.00800000000000286));
#1154=CARTESIAN_POINT('',(-0.058,0.145,-0.0079999999999998));
#1155=CARTESIAN_POINT('',(-0.058,0.145,-0.0079999999999998));
#1156=CARTESIAN_POINT('',(-0.0180000000000198,0.127679491924324,-0.0179999999999937));
#1157=CARTESIAN_POINT('',(-0.00280384757732002,0.154000000000005,-0.0028038475772929));
#1158=CARTESIAN_POINT('',(-0.00800000000002,0.145000000000015,-0.00799999999999137));
#1159=CARTESIAN_POINT('',(-0.058,0.154,-0.0028038475772929));
#1160=CARTESIAN_POINT('',(0.00280384757726998,0.154000000000005,-0.0028038475772929));
#1161=CARTESIAN_POINT('',(-0.00520000000004602,0.167863070659929,0.0052000000000126));
#1162=CARTESIAN_POINT('',(0.00799999999998002,0.145000000000015,-0.00799999999999131));
#1163=CARTESIAN_POINT('',(-0.058,0.145,-0.0079999999999998));
#1164=CARTESIAN_POINT('',(-0.058,0.154,-0.0028038475772929));
#1165=CARTESIAN_POINT('',(-0.05280384757732,0.153999999999995,0.5));
#1166=CARTESIAN_POINT('',(-0.0471961524227271,0.154,-0.0028038475772929));
#1167=CARTESIAN_POINT('',(-0.058,0.154,-0.0028038475772929));
#1168=CARTESIAN_POINT('',(-0.00280384757732293,0.154,-0.0028038475772929));
#1169=CARTESIAN_POINT('',(0.00280384757727288,0.154,-0.0028038475772929));
#1170=CARTESIAN_POINT('',(-0.058,0.154,0.0028038475772929));
#1171=CARTESIAN_POINT('',(0.0261569219381631,0.117558983848629,0.0238430780618302));
#1172=CARTESIAN_POINT('',(0.042,0.145000000000015,0.00799999999999968));
#1173=CARTESIAN_POINT('',(0.0471961524226971,0.154,0.0028038475772929));
#1174=CARTESIAN_POINT('',(-0.058,0.145,0.0079999999999997));
#1175=CARTESIAN_POINT('',(0.058,0.145,0.0079999999999997));
#1176=CARTESIAN_POINT('',(0.0306430780617717,0.192383578735638,-0.0193569219381891));
#1177=CARTESIAN_POINT('',(0.05280384757729,0.154000000000005,0.0028038475772929));
#1178=CARTESIAN_POINT('',(-0.058,0.154,0.0028038475772929));
#1179=CARTESIAN_POINT('',(-0.058,0.145,0.0079999999999997));
#1180=CARTESIAN_POINT('',(-0.04200000000003,0.144999999999998,0.0079999999999997));
#1181=CARTESIAN_POINT('',(-0.04200000000004,0.03,0.00799999999999968));
#1182=CARTESIAN_POINT('',(-0.058,0.145,0.0079999999999997));
#1183=CARTESIAN_POINT('',(-0.058,0.014,0.0079999999999997));
#1184=CARTESIAN_POINT('',(-0.058,0.014,0.0079999999999997));
#1185=CARTESIAN_POINT('',(0.058,0.014,0.0079999999999997));
#1186=CARTESIAN_POINT('',(0.058,0.145,0.0079999999999997));
#1187=CARTESIAN_POINT('',(0.042,0.145,0.0079999999999997));
#1188=CARTESIAN_POINT('',(0.042,0.03,0.00799999999999968));
#1189=CARTESIAN_POINT('',(-0.058,0.03,0.0079999999999997));
#1190=CARTESIAN_POINT('',(0.00799999999998002,0.03,0.00799999999999968));
#1191=CARTESIAN_POINT('',(0.00799999999998002,0.145,0.0079999999999997));
#1192=CARTESIAN_POINT('',(-0.00800000000001999,0.145,0.0079999999999997));
#1193=CARTESIAN_POINT('',(-0.00800000000001999,0.03,0.00799999999999968));
#1194=CARTESIAN_POINT('',(-0.058,0.03,0.0079999999999997));
#1195=CARTESIAN_POINT('',(-0.058,0.014,0.0079999999999997));
#1196=CARTESIAN_POINT('',(0.058,0.014,0.0079999999999997));
#1197=CARTESIAN_POINT('',(0.058,0.014,-0.0079999999999998));
#1198=CARTESIAN_POINT('',(-0.058,0.014,0.0079999999999997));
#1199=CARTESIAN_POINT('',(-0.058,0.014,-0.0079999999999998));
#1200=CARTESIAN_POINT('',(-0.058,0.014,-0.0079999999999998));
#1201=CARTESIAN_POINT('',(-0.058,0.014,-0.0079999999999998));
#1202=CARTESIAN_POINT('',(-0.0420000000000414,0.0139999999999986,-0.0079999999999998));
#1203=CARTESIAN_POINT('',(-0.04200000000004,0.03,-0.00799999999999982));
#1204=CARTESIAN_POINT('',(-0.058,0.03,-0.0079999999999998));
#1205=CARTESIAN_POINT('',(-0.00800000000001999,0.03,-0.00799999999999982));
#1206=CARTESIAN_POINT('',(-0.00800000000001999,0.014,-0.0079999999999998));
#1207=CARTESIAN_POINT('',(0.00799999999998002,0.014,-0.0079999999999998));
#1208=CARTESIAN_POINT('',(0.00799999999998002,0.03,-0.00799999999999982));
#1209=CARTESIAN_POINT('',(-0.058,0.03,-0.0079999999999998));
#1210=CARTESIAN_POINT('',(0.042,0.03,-0.00799999999999982));
#1211=CARTESIAN_POINT('',(0.042,0.014,-0.0079999999999998));
#1212=CARTESIAN_POINT('',(0.042,0.145000000000015,-0.00799999999999129));
#1213=CARTESIAN_POINT('',(-0.058,0.145,-0.0079999999999998));
#1214=CARTESIAN_POINT('',(0.058,0.145000000000015,-0.00799999999999982));
#1215=CARTESIAN_POINT('',(0.058,0.014,-0.0079999999999998));
#1216=CARTESIAN_POINT('',(-0.058,0.014,-0.0079999999999998));
#1217=CARTESIAN_POINT('',(-0.058,0.145,-0.0079999999999998));
#1218=CARTESIAN_POINT('',(0.0219999999999992,0.11035898384863,-0.0279999999999973));
#1219=CARTESIAN_POINT('',(0.0471961524227,0.154000000000005,-0.0028038475772929));
#1220=CARTESIAN_POINT('',(-0.058,0.154,-0.0028038475772929));
#1221=CARTESIAN_POINT('',(0.05280384757729,0.154000000000005,-0.0028038475772929));
#1222=CARTESIAN_POINT('',(0.0347999999999421,0.185183578735642,0.0152000000000277));
#1223=CARTESIAN_POINT('',(-0.058,0.154,-0.0028038475772929));
#1224=CARTESIAN_POINT('',(0.0471961524226971,0.154,-0.0028038475772929));
#1225=CARTESIAN_POINT('',(0.05280384757729,0.154000000000005,0.5));
#1226=CARTESIAN_POINT('',(-0.058,0.,0.));
#1227=CARTESIAN_POINT('',(-0.058,0.145000000000047,0.));
#1228=CARTESIAN_POINT('',(0.058,0.,0.));
#1229=CARTESIAN_POINT('',(0.058,0.145000000000015,0.));
#1230=CARTESIAN_POINT('',(0.058,0.145000000000015,0.5));
#1231=CARTESIAN_POINT('',(-0.05280384757732,0.153999999999995,0.5));
#1232=CARTESIAN_POINT('',(0.0471961524227,0.154000000000005,0.5));
#1233=CARTESIAN_POINT('',(0.042,0.145000000000015,0.5));
#1234=CARTESIAN_POINT('',(0.042,0.145000000000015,0.5));
#1235=CARTESIAN_POINT('',(0.042,0.03,0.5));
#1236=CARTESIAN_POINT('',(0.042,0.03,0.5));
#1237=CARTESIAN_POINT('',(0.00799999999998002,0.03,0.5));
#1238=CARTESIAN_POINT('',(0.00799999999998002,0.145000000000015,0.5));
#1239=CARTESIAN_POINT('',(0.00799999999998002,0.145000000000015,0.5));
#1240=CARTESIAN_POINT('',(0.00799999999998002,0.03,0.5));
#1241=CARTESIAN_POINT('',(-0.04200000000003,0.144999999999995,0.5));
#1242=CARTESIAN_POINT('',(-0.04200000000003,0.144999999999995,0.5));
#1243=CARTESIAN_POINT('',(-0.04200000000004,0.03,0.5));
#1244=CARTESIAN_POINT('',(-0.04200000000004,0.03,0.5));
#1245=CARTESIAN_POINT('',(-0.00800000000001999,0.03,0.5));
#1246=CARTESIAN_POINT('',(-0.00800000000001999,0.03,0.5));
#1247=CARTESIAN_POINT('',(-0.00800000000001999,0.145000000000015,0.5));
#1248=CARTESIAN_POINT('',(-0.00800000000001999,0.145000000000015,0.5));
#1249=CARTESIAN_POINT('',(-0.00280384757732002,0.154000000000005,0.5));
#1250=CARTESIAN_POINT('',(0.,0.,0.));
#1251=CARTESIAN_POINT('',(-0.058,-0.09,0.008));
#1252=CARTESIAN_POINT('',(0.04200000000001,-0.089999999999997,0.5));
#1253=CARTESIAN_POINT('',(0.04200000000001,-0.089999999999997,0.00800000000000002));
#1254=CARTESIAN_POINT('',(0.04200000000001,-0.089999999999997,-0.00800000000000002));
#1255=CARTESIAN_POINT('',(-0.058,-0.09,-0.008));
#1256=CARTESIAN_POINT('',(0.058,-0.09,-0.008));
#1257=CARTESIAN_POINT('',(0.058,-0.09,0.008));
#1258=CARTESIAN_POINT('',(0.058,-0.09,0.008));
#1259=CARTESIAN_POINT('',(-0.058,-0.09,0.008));
#1260=CARTESIAN_POINT('',(-0.058,-0.09,0.008));
#1261=CARTESIAN_POINT('',(0.00799999999997,-0.089999999999986,0.5));
#1262=CARTESIAN_POINT('',(0.00799999999997,-0.089999999999986,0.00800000000000002));
#1263=CARTESIAN_POINT('',(0.00799999999997001,-0.09,-0.008));
#1264=CARTESIAN_POINT('',(-0.058,-0.09,0.008));
#1265=CARTESIAN_POINT('',(-0.00800000000001,-0.089999999999995,0.00800000000000002));
#1266=CARTESIAN_POINT('',(-0.00800000000001,-0.089999999999995,0.5));
#1267=CARTESIAN_POINT('',(-0.00800000000001,-0.089999999999995,-0.00800000000000002));
#1268=CARTESIAN_POINT('',(-0.058,-0.09,-0.008));
#1269=CARTESIAN_POINT('',(-0.058,0.02,-0.008));
#1270=CARTESIAN_POINT('',(0.058,0.02,-0.008));
#1271=CARTESIAN_POINT('',(0.058,0.02,-0.008));
#1272=CARTESIAN_POINT('',(0.058,0.02,0.008));
#1273=CARTESIAN_POINT('',(-0.058,0.02,-0.008));
#1274=CARTESIAN_POINT('',(-0.058,0.02,-0.008));
#1275=CARTESIAN_POINT('',(-0.058,0.02,-0.008));
#1276=CARTESIAN_POINT('',(-0.058,0.02,0.008));
#1277=CARTESIAN_POINT('',(-0.058,0.02,0.008));
#1278=CARTESIAN_POINT('',(-0.058,0.02,0.008));
#1279=CARTESIAN_POINT('',(0.041999999999999,0.02000000000001,0.008));
#1280=CARTESIAN_POINT('',(0.042,0.009999999999998,0.00800000000000002));
#1281=CARTESIAN_POINT('',(0.058,0.02,0.008));
#1282=CARTESIAN_POINT('',(-0.058,0.02,0.008));
#1283=CARTESIAN_POINT('',(-0.058,-0.09,0.008));
#1284=CARTESIAN_POINT('',(-0.058,-0.09,0.008));
#1285=CARTESIAN_POINT('',(-0.04200000000004,-0.089999999999999,0.00800000000000002));
#1286=CARTESIAN_POINT('',(-0.04200000000004,0.02,0.008));
#1287=CARTESIAN_POINT('',(-0.04200000000004,0.01,0.00800000000000002));
#1288=CARTESIAN_POINT('',(-0.058,0.00999999999999999,0.008));
#1289=CARTESIAN_POINT('',(-0.00800000000001999,0.01,0.00800000000000002));
#1290=CARTESIAN_POINT('',(-0.00800000000002099,0.020000000000005,0.008));
#1291=CARTESIAN_POINT('',(0.00799999999998102,0.0199999999999934,0.008));
#1292=CARTESIAN_POINT('',(0.00799999999998002,0.009999999999998,0.00800000000000002));
#1293=CARTESIAN_POINT('',(-0.058,0.00999999999999798,0.008));
#1294=CARTESIAN_POINT('',(-0.058,-0.09,0.008));
#1295=CARTESIAN_POINT('',(-0.04200000000004,-0.089999999999999,0.5));
#1296=CARTESIAN_POINT('',(-0.04200000000004,-0.09,-0.008));
#1297=CARTESIAN_POINT('',(-0.058,-0.09,0.008));
#1298=CARTESIAN_POINT('',(-0.058,-0.09,-0.008));
#1299=CARTESIAN_POINT('',(-0.058,-0.09,-0.008));
#1300=CARTESIAN_POINT('',(-0.058,-0.09,-0.008));
#1301=CARTESIAN_POINT('',(0.04200000000001,-0.08999999999999,-0.008));
#1302=CARTESIAN_POINT('',(0.042,0.009999999999998,-0.00800000000000002));
#1303=CARTESIAN_POINT('',(-0.058,0.00999999999999798,-0.008));
#1304=CARTESIAN_POINT('',(0.00799999999998002,0.009999999999998,-0.00800000000000002));
#1305=CARTESIAN_POINT('',(0.00799999999997,-0.0900000000000066,-0.008));
#1306=CARTESIAN_POINT('',(-0.00800000000001,-0.089999999999995,-0.008));
#1307=CARTESIAN_POINT('',(-0.00800000000001999,0.01,-0.00800000000000002));
#1308=CARTESIAN_POINT('',(-0.058,0.01,-0.008));
#1309=CARTESIAN_POINT('',(-0.04200000000004,0.01,-0.00800000000000002));
#1310=CARTESIAN_POINT('',(-0.04200000000004,-0.09,-0.008));
#1311=CARTESIAN_POINT('',(-0.058,-0.09,-0.008));
#1312=CARTESIAN_POINT('',(0.058,-0.09,-0.008));
#1313=CARTESIAN_POINT('',(-0.058,0.,0.));
#1314=CARTESIAN_POINT('',(0.058,0.,0.));
#1315=CARTESIAN_POINT('',(-0.04200000000004,-0.089999999999999,0.5));
#1316=CARTESIAN_POINT('',(-0.04200000000004,0.01,0.5));
#1317=CARTESIAN_POINT('',(-0.04200000000004,0.01,0.5));
#1318=CARTESIAN_POINT('',(-0.00800000000001999,0.01,0.5));
#1319=CARTESIAN_POINT('',(-0.00800000000001999,0.01,0.5));
#1320=CARTESIAN_POINT('',(0.042,0.009999999999998,0.5));
#1321=CARTESIAN_POINT('',(0.042,0.009999999999998,0.5));
#1322=CARTESIAN_POINT('',(0.00799999999998002,0.009999999999998,0.5));
#1323=CARTESIAN_POINT('',(0.00799999999998002,0.009999999999998,0.5));
#1324=CARTESIAN_POINT('',(0.00799999999997,-0.089999999999986,0.5));
#1325=CARTESIAN_POINT('',(0.,0.,0.));
#1326=(
GEOMETRIC_REPRESENTATION_CONTEXT(3)
GLOBAL_UNCERTAINTY_ASSIGNED_CONTEXT((#1330))
GLOBAL_UNIT_ASSIGNED_CONTEXT((#1336,#1335,#1334))
REPRESENTATION_CONTEXT('FTS-103-01-F-S','TOP_LEVEL_ASSEMBLY_PART')
);
#1327=(
GEOMETRIC_REPRESENTATION_CONTEXT(3)
GLOBAL_UNCERTAINTY_ASSIGNED_CONTEXT((#1331))
GLOBAL_UNIT_ASSIGNED_CONTEXT((#1336,#1335,#1334))
REPRESENTATION_CONTEXT('FTS-103-01-F-S_body','COMPONENT_PART')
);
#1328=(
GEOMETRIC_REPRESENTATION_CONTEXT(3)
GLOBAL_UNCERTAINTY_ASSIGNED_CONTEXT((#1332))
GLOBAL_UNIT_ASSIGNED_CONTEXT((#1336,#1335,#1334))
REPRESENTATION_CONTEXT('FTS-103-01-F-S_pins1','COMPONENT_PART')
);
#1329=(
GEOMETRIC_REPRESENTATION_CONTEXT(3)
GLOBAL_UNCERTAINTY_ASSIGNED_CONTEXT((#1333))
GLOBAL_UNIT_ASSIGNED_CONTEXT((#1336,#1335,#1334))
REPRESENTATION_CONTEXT('FTS-103-01-F-S_pins2','COMPONENT_PART')
);
#1330=UNCERTAINTY_MEASURE_WITH_UNIT(LENGTH_MEASURE(3.93700787401575E-7),
#1336,'DISTANCE_ACCURACY_VALUE','Maximum Tolerance applied to model');
#1331=UNCERTAINTY_MEASURE_WITH_UNIT(LENGTH_MEASURE(3.93700787401575E-7),
#1336,'DISTANCE_ACCURACY_VALUE','Maximum Tolerance applied to model');
#1332=UNCERTAINTY_MEASURE_WITH_UNIT(LENGTH_MEASURE(3.93700787401575E-7),
#1336,'DISTANCE_ACCURACY_VALUE','Maximum Tolerance applied to model');
#1333=UNCERTAINTY_MEASURE_WITH_UNIT(LENGTH_MEASURE(3.93700787401575E-7),
#1336,'DISTANCE_ACCURACY_VALUE','Maximum Tolerance applied to model');
#1334=(
NAMED_UNIT(*)
SI_UNIT($,.STERADIAN.)
SOLID_ANGLE_UNIT()
);
#1335=(
NAMED_UNIT(*)
PLANE_ANGLE_UNIT()
SI_UNIT($,.RADIAN.)
);
#1336=(
CONVERSION_BASED_UNIT('INCH',#1338)
LENGTH_UNIT()
NAMED_UNIT(#1337)
);
#1337=DIMENSIONAL_EXPONENTS(1.,0.,0.,0.,0.,0.,0.);
#1338=LENGTH_MEASURE_WITH_UNIT(LENGTH_MEASURE(25.4),#1339);
#1339=(
LENGTH_UNIT()
NAMED_UNIT(*)
SI_UNIT(.MILLI.,.METRE.)
);
#1340=PRODUCT_DEFINITION_SHAPE('','',#1347);
#1341=PRODUCT_DEFINITION_SHAPE('','',#1348);
#1342=PRODUCT_DEFINITION_SHAPE(' ','NAUO PRDDFN',#21);
#1343=PRODUCT_DEFINITION_SHAPE('','',#1349);
#1344=PRODUCT_DEFINITION_SHAPE(' ','NAUO PRDDFN',#22);
#1345=PRODUCT_DEFINITION_SHAPE('','',#1350);
#1346=PRODUCT_DEFINITION_SHAPE(' ','NAUO PRDDFN',#23);
#1347=PRODUCT_DEFINITION('','',#1355,#1351);
#1348=PRODUCT_DEFINITION('','',#1356,#1352);
#1349=PRODUCT_DEFINITION('','',#1357,#1353);
#1350=PRODUCT_DEFINITION('','',#1358,#1354);
#1351=DESIGN_CONTEXT('',#1376,'design');
#1352=DESIGN_CONTEXT('',#1376,'design');
#1353=DESIGN_CONTEXT('',#1376,'design');
#1354=DESIGN_CONTEXT('',#1376,'design');
#1355=PRODUCT_DEFINITION_FORMATION_WITH_SPECIFIED_SOURCE('','',#1363,
 .NOT_KNOWN.);
#1356=PRODUCT_DEFINITION_FORMATION_WITH_SPECIFIED_SOURCE('','',#1364,
 .NOT_KNOWN.);
#1357=PRODUCT_DEFINITION_FORMATION_WITH_SPECIFIED_SOURCE('','',#1365,
 .NOT_KNOWN.);
#1358=PRODUCT_DEFINITION_FORMATION_WITH_SPECIFIED_SOURCE('','',#1366,
 .NOT_KNOWN.);
#1359=PRODUCT_RELATED_PRODUCT_CATEGORY('','',(#1363));
#1360=PRODUCT_RELATED_PRODUCT_CATEGORY('','',(#1364));
#1361=PRODUCT_RELATED_PRODUCT_CATEGORY('','',(#1365));
#1362=PRODUCT_RELATED_PRODUCT_CATEGORY('','',(#1366));
#1363=PRODUCT('FTS-103-01-F-S','FTS-103-01-F-S','FTS-103-01-F-S',(#1371));
#1364=PRODUCT('FTS-103-01-F-S_body','FTS-103-01-F-S_body',
'FTS-103-01-F-S_body',(#1372));
#1365=PRODUCT('FTS-103-01-F-S_pins1','FTS-103-01-F-S_pins1',
'FTS-103-01-F-S_pins1',(#1373));
#1366=PRODUCT('FTS-103-01-F-S_pins2','FTS-103-01-F-S_pins2',
'FTS-103-01-F-S_pins2',(#1374));
#1367=PRODUCT_CATEGORY('','');
#1368=PRODUCT_CATEGORY('','');
#1369=PRODUCT_CATEGORY('','');
#1370=PRODUCT_CATEGORY('','');
#1371=MECHANICAL_CONTEXT('',#1376,'mechanical');
#1372=MECHANICAL_CONTEXT('',#1376,'mechanical');
#1373=MECHANICAL_CONTEXT('',#1376,'mechanical');
#1374=MECHANICAL_CONTEXT('',#1376,'mechanical');
#1375=APPLICATION_PROTOCOL_DEFINITION('international standard',
'config_control_design',2010,#1376);
#1376=APPLICATION_CONTEXT(
'configuration controlled 3D designs of mechanical parts and assemblie
s');
ENDSEC;
END-ISO-10303-21;
